<?xml version="1.0" encoding="UTF-8"?>
<svg xmlns="http://www.w3.org/2000/svg" xmlns:xlink="http://www.w3.org/1999/xlink" width="22px"
    height="25px" viewBox="0 0 22 24" version="1.1">
    <g id="surface1">
        <path
            style="fill:none;stroke-width:4.99663;stroke-linecap:round;stroke-linejoin:miter;stroke:rgb(0%,0%,0%);stroke-opacity:1;stroke-miterlimit:10;"
            d="M 360.888793 192.984163 L 360.888793 161.486767 "
            transform="matrix(0.0603656,0,0,0.0585366,-10.527452,-8.421634)" />
        <path
            style="fill-rule:nonzero;fill:rgb(0%,0%,0%);fill-opacity:1;stroke-width:5.99596;stroke-linecap:butt;stroke-linejoin:miter;stroke:rgb(100%,100%,100%);stroke-opacity:1;stroke-miterlimit:10;"
            d="M 374.736707 162.821403 C 374.736707 170.428825 368.524559 176.701611 360.888793 176.701611 C 353.188317 176.701611 346.976169 170.428825 346.976169 162.821403 C 346.976169 155.147249 353.188317 148.874463 360.888793 148.874463 C 368.524559 148.874463 374.736707 155.147249 374.736707 162.821403 Z M 374.736707 162.821403 "
            transform="matrix(0.0603656,0,0,0.0585366,-10.527452,-8.421634)" />
        <path
            style=" stroke:none;fill-rule:nonzero;fill:rgb(27.45098%,72.54902%,50.196078%);fill-opacity:1;"
            d="M 10 1.582031 C 10 1.71875 9.886719 1.832031 9.742188 1.832031 C 9.597656 1.832031 9.480469 1.71875 9.480469 1.582031 C 9.480469 1.441406 9.597656 1.328125 9.742188 1.328125 C 9.886719 1.328125 10 1.441406 10 1.582031 Z M 10 1.582031 " />
        <path
            style=" stroke:none;fill-rule:nonzero;fill:rgb(27.45098%,72.54902%,50.196078%);fill-opacity:1;"
            d="M 12.59375 0.347656 C 12.59375 0.417969 12.535156 0.476562 12.460938 0.476562 C 12.390625 0.476562 12.328125 0.417969 12.328125 0.347656 C 12.328125 0.277344 12.390625 0.21875 12.460938 0.21875 C 12.535156 0.21875 12.59375 0.277344 12.59375 0.347656 Z M 12.59375 0.347656 " />
        <path
            style=" stroke:none;fill-rule:nonzero;fill:rgb(27.45098%,72.54902%,50.196078%);fill-opacity:1;"
            d="M 21.8125 13.414062 C 21.8125 19.191406 16.984375 23.875 11.027344 23.875 C 5.070312 23.875 0.242188 19.191406 0.242188 13.414062 C 0.242188 7.640625 5.070312 2.957031 11.027344 2.957031 C 16.984375 2.957031 21.8125 7.640625 21.8125 13.414062 Z M 21.8125 13.414062 " />
        <path
            style=" stroke:none;fill-rule:nonzero;fill:rgb(23.529412%,62.745098%,41.960784%);fill-opacity:1;"
            d="M 2.570312 7.136719 L 2.570312 11.703125 C 2.570312 11.714844 2.570312 11.726562 2.570312 11.730469 C 2.59375 12 2.957031 15.492188 6.652344 15.445312 C 6.652344 15.445312 9.089844 15.398438 9.988281 14.136719 C 10.78125 13.015625 5.242188 7.074219 3.871094 5.800781 C 3.703125 5.648438 3.273438 6.183594 3.113281 6.347656 C 2.875 6.582031 2.59375 6.90625 2.570312 7.109375 " />
        <path
            style=" stroke:none;fill-rule:nonzero;fill:rgb(23.529412%,62.745098%,41.960784%);fill-opacity:1;"
            d="M 20.25 14.058594 C 19.351562 15.359375 16.910156 15.449219 16.910156 15.449219 C 13.320312 15.492188 12.871094 12.132812 12.832031 11.679688 C 12.832031 11.648438 12.832031 11.621094 12.832031 11.585938 L 12.832031 7.757812 C 12.832031 6.746094 13.210938 5.757812 13.929688 5.015625 C 14.308594 4.625 14.816406 4.261719 15.464844 4.054688 C 15.464844 4.054688 16.167969 4.179688 16.910156 4.839844 L 20.257812 14.046875 Z M 20.25 14.058594 " />
        <path
            style="fill:none;stroke-width:5.99596;stroke-linecap:round;stroke-linejoin:miter;stroke:rgb(0%,0%,0%);stroke-opacity:1;stroke-miterlimit:10;"
            d="M 395.508578 321.109163 C 395.508578 321.109163 380.366467 305.427197 360.953503 321.175895 "
            transform="matrix(0.0603656,0,0,0.0585366,-10.527452,-8.421634)" />
        <path style=" stroke:none;fill-rule:nonzero;fill:rgb(100%,100%,100%);fill-opacity:1;"
            d="M 7.160156 4.148438 C 9.390625 4.148438 11.195312 5.902344 11.195312 8.0625 L 11.195312 11.105469 C 11.195312 13.265625 9.390625 15.019531 7.160156 15.019531 C 4.929688 15.019531 3.125 13.265625 3.125 11.105469 L 3.125 8.0625 C 3.125 5.902344 4.929688 4.148438 7.160156 4.148438 Z M 7.160156 4.148438 " />
        <path
            style="fill-rule:nonzero;fill:rgb(100%,100%,100%);fill-opacity:1;stroke-width:5.99596;stroke-linecap:butt;stroke-linejoin:miter;stroke:rgb(0%,0%,0%);stroke-opacity:1;stroke-miterlimit:10;"
            d="M 462.289174 214.738721 C 499.238515 214.738721 529.13448 244.701286 529.13448 281.603955 L 529.13448 333.588004 C 529.13448 370.490674 499.238515 400.453239 462.289174 400.453239 C 425.339833 400.453239 395.443869 370.490674 395.443869 333.588004 L 395.443869 281.603955 C 395.443869 244.701286 425.339833 214.738721 462.289174 214.738721 Z M 462.289174 214.738721 "
            transform="matrix(0.0603656,0,0,0.0585366,-10.527452,-8.421634)" />
        <path
            style="fill:none;stroke-width:5.99596;stroke-linecap:butt;stroke-linejoin:miter;stroke:rgb(0%,0%,0%);stroke-opacity:1;stroke-miterlimit:10;"
            d="M 293.008129 214.738721 C 329.95747 214.738721 359.853435 244.701286 359.853435 281.603955 L 359.853435 333.588004 C 359.853435 370.490674 329.95747 400.453239 293.008129 400.453239 C 256.058788 400.453239 226.162823 370.490674 226.162823 333.588004 L 226.162823 281.603955 C 226.162823 244.701286 256.058788 214.738721 293.008129 214.738721 Z M 293.008129 214.738721 "
            transform="matrix(0.0603656,0,0,0.0585366,-10.527452,-8.421634)" />
        <path
            style="fill-rule:nonzero;fill:rgb(0%,0%,0%);fill-opacity:1;stroke-width:6.99529;stroke-linecap:butt;stroke-linejoin:miter;stroke:rgb(0%,0%,0%);stroke-opacity:1;stroke-miterlimit:10;"
            d="M 266.930048 312.901156 C 266.930048 320.041455 261.106158 325.847119 253.923362 325.847119 C 246.740565 325.847119 240.916676 320.041455 240.916676 312.901156 C 240.916676 305.694124 246.740565 299.88846 253.923362 299.88846 C 261.106158 299.88846 266.930048 305.694124 266.930048 312.901156 Z M 266.930048 312.901156 "
            transform="matrix(0.0603656,0,0,0.0585366,-10.527452,-8.421634)" />
        <path
            style="fill-rule:nonzero;fill:rgb(0%,0%,0%);fill-opacity:1;stroke-width:6.99529;stroke-linecap:butt;stroke-linejoin:miter;stroke:rgb(0%,0%,0%);stroke-opacity:1;stroke-miterlimit:10;"
            d="M 438.993617 315.503695 C 438.993617 322.643994 433.169728 328.449658 425.986932 328.449658 C 418.868845 328.449658 413.044956 322.643994 413.044956 315.503695 C 413.044956 308.296663 418.868845 302.490999 425.986932 302.490999 C 433.169728 302.490999 438.993617 308.296663 438.993617 315.503695 Z M 438.993617 315.503695 "
            transform="matrix(0.0603656,0,0,0.0585366,-10.527452,-8.421634)" />
    </g>
</svg>
