<svg width="53" height="53" viewBox="0 0 53 53" fill="none" xmlns="http://www.w3.org/2000/svg">
<ellipse cx="16.5524" cy="15.5785" rx="16.5524" ry="15.5785" transform="matrix(-1 0 0 1 44.6289 10.5)" fill="#FFC0D3"/>
<path d="M9.70058 35.7317C4.35393 26.5907 7.54057 14.8518 16.8012 9.57428C26.0619 4.29675 37.9546 7.44218 43.3012 16.5831C43.6892 17.2465 43.4537 18.1141 42.7817 18.4971C42.1097 18.8801 41.2306 18.6476 40.8427 17.9842C36.272 10.17 26.121 7.49883 18.2207 12.0011C10.3204 16.5033 7.58849 26.5163 12.1592 34.3306C16.7298 42.1449 26.8809 44.816 34.7811 40.3137C35.4531 39.9308 36.3322 40.1633 36.7201 40.8266C37.1081 41.4899 36.8726 42.3576 36.2006 42.7405C26.9399 48.0181 15.0472 44.8726 9.70058 35.7317Z" fill="#353C57"/>
<path d="M32.2392 33.0817L19.8049 20.8081C19.2562 20.2665 19.2562 19.3683 19.8049 18.8267C20.3536 18.2851 21.2636 18.2851 21.8123 18.8267L34.2466 31.1002C34.7953 31.6418 34.7953 32.5401 34.2466 33.0817C33.6979 33.6233 32.7879 33.6233 32.2392 33.0817Z" fill="#353C57"/>
<path d="M21.6554 32.777L34.0896 20.5035C34.6383 19.9619 34.6383 19.0636 34.0897 18.522C33.541 17.9804 32.6309 17.9804 32.0822 18.522L19.6479 30.7955C19.0992 31.3371 19.0992 32.2354 19.6479 32.777C20.1966 33.3186 21.1067 33.3186 21.6554 32.777Z" fill="#353C57"/>
</svg>
