<svg width="79" height="71" viewBox="0 0 79 71" fill="none" xmlns="http://www.w3.org/2000/svg">
<g id="credit-card2 1" clip-path="url(#clip0_57076_5823)">
<path id="Vector" d="M59.8086 56.4741C59.8086 61.2864 55.8572 65.1875 50.9829 65.1875L25.7218 65.1875C16.3101 65.1875 13.4351 52.586 21.9379 48.6021L32.0437 43.8672L46.6968 35.8299C52.5794 32.6034 59.8086 36.803 59.8086 43.4469L59.8086 56.4741Z" fill="#E8EFFF"/>
<rect id="Rectangle 211" x="9.07031" y="37.6133" width="10.7453" height="10.6087" rx="2.11209" fill="#9DF9CC"/>
<g id="Union">
<mask id="path-3-inside-1_57076_5823" fill="white">
<path fill-rule="evenodd" clip-rule="evenodd" d="M17.2479 0H18.6806C28.2505 1.69441 37.8239 3.36802 47.3974 5.04164C55.6335 6.48147 63.8697 7.9213 72.1037 9.3744C72.384 9.42745 72.6689 9.47254 72.9547 9.51779C74.0051 9.68409 75.0694 9.85257 75.9765 10.4264C77.3705 11.2585 78.2517 12.7725 78.4247 14.3526V14.7286C78.3607 15.6645 78.1856 16.5871 78.0107 17.5089C77.9407 17.8774 77.8708 18.2458 77.8081 18.6148C77.043 22.8451 76.2747 27.0748 75.5065 31.3045L75.5012 31.3332L75.5011 31.3338L75.5009 31.3349L75.5004 31.3378L75.4997 31.3413C74.3451 37.6982 73.1904 44.0551 72.0467 50.4142C72.023 50.5287 72.0031 50.6491 71.9828 50.7717C71.8849 51.364 71.7784 52.0082 71.1899 52.2982C70.4736 52.7402 69.4377 52.2282 69.3116 51.4262C69.2809 51.0464 69.3463 50.6697 69.4112 50.2962L69.4113 50.2955L69.4209 50.2405L69.4357 50.1541C70.2653 45.6369 71.0827 41.1172 71.9001 36.5975L71.9006 36.5947L71.901 36.5924L71.9016 36.5894C72.8865 31.1439 73.8714 25.6983 74.8775 20.2569C64.7201 18.4466 54.5555 16.6711 44.3908 14.8955L44.3907 14.8955C36.4628 13.5107 28.5348 12.1258 20.6099 10.7245C19.5903 10.6585 19.0693 9.3044 19.7959 8.60037C20.2558 8.04034 21.0291 8.18035 21.6539 8.30635C30.623 9.88999 39.5951 11.459 48.5675 13.0281L48.5678 13.0282L48.5682 13.0283L48.5686 13.0283L48.569 13.0284L48.5694 13.0285C57.4894 14.5884 66.4096 16.1484 75.3273 17.7228C75.3659 17.3262 75.4571 16.9142 75.5493 16.4978C75.7969 15.3789 76.0516 14.2279 75.313 13.2586C74.7024 12.3784 73.6225 12.2096 72.6117 12.0516C72.4097 12.02 72.2104 11.9888 72.0182 11.9525C63.5549 10.4755 55.093 8.99145 46.6312 7.5074L46.6242 7.50619L46.6223 7.50585L46.6189 7.50525C37.6105 5.92536 28.6023 4.34549 19.5924 2.77412C19.4073 2.74637 19.22 2.70989 19.0316 2.67318C18.3643 2.54321 17.6824 2.41037 17.0302 2.65211C16.1246 2.95413 15.4387 3.76816 15.2983 4.6982C15.0652 5.9697 14.8362 7.24201 14.6071 8.51434L14.6071 8.51468L14.607 8.51502L14.6069 8.51537L14.6069 8.51571L14.6068 8.51605C14.2101 10.7196 13.8135 12.9231 13.3955 15.1226C16.54 15.6753 19.6852 16.2252 22.8304 16.7751L22.8363 16.7761L22.8384 16.7765C27.7267 17.6311 32.615 18.4858 37.5011 19.3508C38.5431 19.3928 39.1597 20.7189 38.4291 21.4789C37.9171 22.0749 37.1448 21.9165 36.4416 21.7723C36.2811 21.7394 36.1242 21.7072 35.9748 21.6849C33.2971 21.2168 30.6197 20.7457 27.942 20.2746L27.9374 20.2738L27.9364 20.2736L27.9353 20.2734L27.9343 20.2733L27.9332 20.2731L27.9322 20.2729C22.9369 19.394 17.941 18.5151 12.9417 17.6548L12.8023 18.4371L12.8023 18.4372C12.4117 20.6301 12.0214 22.8212 11.6067 25.0091C11.5293 25.5811 11.0368 26.0831 10.4385 26.1071C9.61289 26.1437 8.7859 26.1336 7.95903 26.1236H7.95901H7.95899H7.95897H7.95895H7.95893C7.02289 26.1122 6.087 26.1008 5.15341 26.1571C3.84078 26.2691 2.81713 27.5092 2.87818 28.7852C2.88247 32.9006 2.87999 37.016 2.87752 41.1314C2.87294 48.7525 2.86835 56.3736 2.90668 63.9947C2.90606 64.1273 2.90244 64.2624 2.89879 64.3988C2.87839 65.1617 2.85689 65.9654 3.35236 66.5948C3.88352 67.3669 4.84611 67.7429 5.77615 67.7009C17.2115 67.696 28.6476 67.6971 40.0835 67.6982H40.0836H40.0837H40.0838H40.0839H40.084C47.2333 67.699 54.3825 67.6997 61.5314 67.6989C62.9316 67.7829 64.3215 66.6208 64.2707 65.2068C64.2361 63.5387 64.2279 61.8706 64.293 60.2046C64.2961 54.9815 64.2956 49.7585 64.2951 44.5355V44.5019C64.2946 39.2677 64.2941 34.0335 64.2971 28.7992C64.3276 27.9272 63.9043 27.0592 63.1595 26.5751C62.4911 26.0954 61.6572 26.1075 60.8558 26.1192C60.6715 26.1218 60.4889 26.1245 60.3104 26.1211C53.7569 26.1258 47.2035 26.1248 40.6501 26.1238C33.0882 26.1227 25.5262 26.1216 17.9643 26.1291C17.5023 26.1411 16.9935 26.0531 16.6842 25.6811C16.1042 25.0571 16.3851 23.911 17.2194 23.651C17.7282 23.5242 18.2525 23.5354 18.7746 23.5466C18.9855 23.5511 19.1961 23.5556 19.4051 23.551C27.4275 23.5533 35.4499 23.553 43.4719 23.5526H43.5032H43.5033H43.5035H43.5036H43.5038C49.5106 23.5524 55.5171 23.5521 61.5233 23.553C62.2308 23.5602 62.913 23.7224 63.5962 23.8848L63.5963 23.8849L63.5964 23.8849C64.0588 23.9948 64.5216 24.1049 64.9931 24.167C65.4636 24.2629 65.939 24.3379 66.4144 24.4128C67.1585 24.5301 67.9026 24.6474 68.6278 24.8451C69.5293 25.1031 69.7471 26.4131 69.0266 26.9772C68.5161 27.4404 67.8441 27.2937 67.2128 27.156C67.0237 27.1147 66.8382 27.0742 66.6619 27.0512L66.6713 27.0966C66.7884 27.6597 66.9062 28.2267 66.9122 28.8032C66.9102 33.7723 66.9107 38.7414 66.9112 43.7104C66.9117 48.6758 66.9122 53.6411 66.9102 58.6065C66.9014 59.4671 66.9203 60.3283 66.9391 61.1897V61.19V61.1902V61.1905V61.1907V61.191C66.9686 62.5372 66.9981 63.8837 66.9224 65.2288C66.8532 66.5408 66.3261 67.8409 65.3594 68.7629C64.3622 69.767 62.9417 70.207 61.564 70.403H5.54415C4.27832 70.177 2.96162 69.815 2.00106 68.9229C0.989624 68.0529 0.401484 66.7828 0.277344 65.4768V28.2572C0.462537 26.3771 1.7304 24.6391 3.52941 23.945C4.77291 23.4816 6.09625 23.5162 7.41564 23.5506C8.02666 23.5666 8.63683 23.5826 9.23783 23.549C9.83025 20.2557 10.4278 16.9623 11.0254 13.669L11.0255 13.6684L11.0258 13.6669C11.5571 10.7386 12.0884 7.81042 12.6161 4.88221L12.6319 4.79551L12.6319 4.7955L12.6319 4.79549L12.6319 4.79548L12.6319 4.79547L12.6319 4.79546C12.7342 4.23406 12.8369 3.67082 13.0536 3.14013C13.7415 1.45406 15.4041 0.188008 17.2479 0ZM10.4921 36.2371C11.8806 36.0673 13.2845 36.0905 14.6884 36.1137C15.517 36.1274 16.3457 36.1411 17.1712 36.1151C19.2226 36.0411 21.1111 37.7712 21.1478 39.7933C21.1641 41.8014 21.1641 43.8095 21.1478 45.8176C21.1132 47.7596 19.365 49.4597 17.393 49.4957C15.3539 49.5137 13.3147 49.5137 11.2756 49.4957C9.30967 49.4437 7.58595 47.7436 7.54322 45.8096C7.52802 44.4958 7.53064 43.182 7.53325 41.8688V41.8688V41.8687V41.8687V41.8686V41.8686V41.8683V41.868V41.8678V41.8675V41.8672C7.53449 41.2458 7.53573 40.6244 7.53508 40.0033C7.50048 38.2752 8.78258 36.6392 10.4921 36.2371ZM11.1392 38.7253C10.5674 38.8513 10.1196 39.4093 10.1563 39.9893C10.1441 41.8614 10.1461 43.7335 10.1542 45.6035C10.0972 46.3196 10.7607 46.9696 11.4872 46.9296C12.3483 46.9408 13.2094 46.9385 14.0706 46.9362C14.8986 46.934 15.7266 46.9318 16.5546 46.9416C16.6453 46.9387 16.7383 46.9388 16.8321 46.9388H16.8322H16.8322H16.8323H16.8323H16.8324C17.2563 46.9391 17.6991 46.9394 18.0422 46.6676C18.5123 46.3356 18.5775 45.7196 18.5937 45.1975C18.6039 43.3875 18.6039 41.5754 18.5123 39.7693C18.4696 39.1213 17.8184 38.6553 17.1814 38.6893C16.8671 38.678 16.5521 38.6649 16.2367 38.6517L16.2359 38.6517L16.2351 38.6516L16.2342 38.6516C14.5351 38.5808 12.8241 38.5094 11.1392 38.7253ZM51.1411 36.1143H51.1411C50.3364 36.1025 49.5315 36.0907 48.7347 36.2075C47.1311 36.4535 45.7085 37.5595 45.1082 39.0416C44.172 41.1717 44.752 43.9798 46.7546 45.3259C47.6195 45.9239 48.6838 46.1959 49.736 46.1719C50.2531 46.1719 50.7703 46.1728 51.2877 46.1736H51.2881H51.2885H51.2888H51.2892C52.5327 46.1757 53.7769 46.1778 55.0211 46.1679C56.5332 46.1759 58.0574 45.4679 58.9264 44.2358C60.5769 41.9757 60.0844 38.3436 57.5975 36.8535C56.3511 36.0693 54.8776 36.0911 53.4403 36.1124H53.44C53.0774 36.1178 52.7171 36.1231 52.3633 36.1155C51.9568 36.1262 51.5491 36.1203 51.1414 36.1143H51.1413H51.1413H51.1412H51.1411ZM48.0713 43.0438C46.6589 41.8597 47.1433 39.1836 49.0298 38.7696C50.189 38.6532 51.3577 38.6692 52.5265 38.6852C53.225 38.6947 53.9236 38.7043 54.6202 38.6856C55.656 38.6056 56.753 39.1556 57.1132 40.1496C57.7339 41.4757 56.9381 43.2958 55.4261 43.5678C54.5826 43.6769 53.7304 43.6618 52.8784 43.6466H52.8783H52.8782H52.8781H52.8781C52.3713 43.6376 51.8647 43.6286 51.36 43.6458C51.1411 43.6402 50.9147 43.6448 50.6855 43.6495H50.6853H50.6852H50.6851H50.685C49.7589 43.6684 48.7857 43.6882 48.0713 43.0438ZM9.52638 55.1306C10.6906 55.0426 11.8633 55.0559 13.0351 55.0692C13.6741 55.0765 14.3129 55.0838 14.9499 55.0746C15.9512 54.9586 16.7062 56.1926 16.1302 57.0047C15.7369 57.6806 14.883 57.6605 14.1873 57.6441L14.1257 57.6427C13.5198 57.6224 12.9125 57.6301 12.3055 57.6379C11.4199 57.6493 10.5348 57.6606 9.65459 57.5847C8.40098 57.3887 8.29923 55.4466 9.52638 55.1306ZM25.2094 55.0703C23.8387 55.0604 22.4678 55.0506 21.1009 55.104C20.5148 55.226 20.0508 55.816 20.1037 56.4101C20.1159 57.0881 20.755 57.6361 21.4347 57.6261C22.371 57.6427 23.3074 57.6397 24.2441 57.6368C25.0053 57.6344 25.7667 57.632 26.5285 57.6401C27.1146 57.6761 27.7882 57.4941 28.0589 56.9321C28.5453 56.1621 27.8574 55.036 26.9437 55.078C26.3659 55.0786 25.7878 55.0744 25.2096 55.0703H25.2095H25.2094ZM33.1321 55.1405C33.3685 55.0757 33.6137 55.0721 33.8578 55.0685C33.9227 55.0675 33.9875 55.0666 34.052 55.0645C35.6851 55.0735 37.3178 55.072 38.9504 55.0705H38.9522C40.5842 55.069 42.2163 55.0675 43.8489 55.0765C44.7911 55.0084 45.5054 56.1505 45.0068 56.9465C44.7219 57.5306 44.0137 57.6706 43.4154 57.6406C42.0354 57.6281 40.6546 57.6325 39.2739 57.637C37.3297 57.6432 35.3855 57.6495 33.4435 57.6086C32.1207 57.5426 31.8785 55.5285 33.1321 55.1405ZM54.6849 55.0709C53.0625 55.0557 51.4394 55.0406 49.8259 55.1346C48.6211 55.4746 48.7208 57.3747 49.9622 57.5827C51.2767 57.6609 52.5962 57.6493 53.916 57.6376C54.8234 57.6296 55.7311 57.6215 56.6373 57.6427C57.2845 57.6767 58.0843 57.5887 58.3997 56.9387C58.8963 56.1627 58.186 55.0266 57.2682 55.0786C56.4083 55.0869 55.5467 55.0789 54.6849 55.0709Z"/>
</mask>
<path fill-rule="evenodd" clip-rule="evenodd" d="M17.2479 0H18.6806C28.2505 1.69441 37.8239 3.36802 47.3974 5.04164C55.6335 6.48147 63.8697 7.9213 72.1037 9.3744C72.384 9.42745 72.6689 9.47254 72.9547 9.51779C74.0051 9.68409 75.0694 9.85257 75.9765 10.4264C77.3705 11.2585 78.2517 12.7725 78.4247 14.3526V14.7286C78.3607 15.6645 78.1856 16.5871 78.0107 17.5089C77.9407 17.8774 77.8708 18.2458 77.8081 18.6148C77.043 22.8451 76.2747 27.0748 75.5065 31.3045L75.5012 31.3332L75.5011 31.3338L75.5009 31.3349L75.5004 31.3378L75.4997 31.3413C74.3451 37.6982 73.1904 44.0551 72.0467 50.4142C72.023 50.5287 72.0031 50.6491 71.9828 50.7717C71.8849 51.364 71.7784 52.0082 71.1899 52.2982C70.4736 52.7402 69.4377 52.2282 69.3116 51.4262C69.2809 51.0464 69.3463 50.6697 69.4112 50.2962L69.4113 50.2955L69.4209 50.2405L69.4357 50.1541C70.2653 45.6369 71.0827 41.1172 71.9001 36.5975L71.9006 36.5947L71.901 36.5924L71.9016 36.5894C72.8865 31.1439 73.8714 25.6983 74.8775 20.2569C64.7201 18.4466 54.5555 16.6711 44.3908 14.8955L44.3907 14.8955C36.4628 13.5107 28.5348 12.1258 20.6099 10.7245C19.5903 10.6585 19.0693 9.3044 19.7959 8.60037C20.2558 8.04034 21.0291 8.18035 21.6539 8.30635C30.623 9.88999 39.5951 11.459 48.5675 13.0281L48.5678 13.0282L48.5682 13.0283L48.5686 13.0283L48.569 13.0284L48.5694 13.0285C57.4894 14.5884 66.4096 16.1484 75.3273 17.7228C75.3659 17.3262 75.4571 16.9142 75.5493 16.4978C75.7969 15.3789 76.0516 14.2279 75.313 13.2586C74.7024 12.3784 73.6225 12.2096 72.6117 12.0516C72.4097 12.02 72.2104 11.9888 72.0182 11.9525C63.5549 10.4755 55.093 8.99145 46.6312 7.5074L46.6242 7.50619L46.6223 7.50585L46.6189 7.50525C37.6105 5.92536 28.6023 4.34549 19.5924 2.77412C19.4073 2.74637 19.22 2.70989 19.0316 2.67318C18.3643 2.54321 17.6824 2.41037 17.0302 2.65211C16.1246 2.95413 15.4387 3.76816 15.2983 4.6982C15.0652 5.9697 14.8362 7.24201 14.6071 8.51434L14.6071 8.51468L14.607 8.51502L14.6069 8.51537L14.6069 8.51571L14.6068 8.51605C14.2101 10.7196 13.8135 12.9231 13.3955 15.1226C16.54 15.6753 19.6852 16.2252 22.8304 16.7751L22.8363 16.7761L22.8384 16.7765C27.7267 17.6311 32.615 18.4858 37.5011 19.3508C38.5431 19.3928 39.1597 20.7189 38.4291 21.4789C37.9171 22.0749 37.1448 21.9165 36.4416 21.7723C36.2811 21.7394 36.1242 21.7072 35.9748 21.6849C33.2971 21.2168 30.6197 20.7457 27.942 20.2746L27.9374 20.2738L27.9364 20.2736L27.9353 20.2734L27.9343 20.2733L27.9332 20.2731L27.9322 20.2729C22.9369 19.394 17.941 18.5151 12.9417 17.6548L12.8023 18.4371L12.8023 18.4372C12.4117 20.6301 12.0214 22.8212 11.6067 25.0091C11.5293 25.5811 11.0368 26.0831 10.4385 26.1071C9.61289 26.1437 8.7859 26.1336 7.95903 26.1236H7.95901H7.95899H7.95897H7.95895H7.95893C7.02289 26.1122 6.087 26.1008 5.15341 26.1571C3.84078 26.2691 2.81713 27.5092 2.87818 28.7852C2.88247 32.9006 2.87999 37.016 2.87752 41.1314C2.87294 48.7525 2.86835 56.3736 2.90668 63.9947C2.90606 64.1273 2.90244 64.2624 2.89879 64.3988C2.87839 65.1617 2.85689 65.9654 3.35236 66.5948C3.88352 67.3669 4.84611 67.7429 5.77615 67.7009C17.2115 67.696 28.6476 67.6971 40.0835 67.6982H40.0836H40.0837H40.0838H40.0839H40.084C47.2333 67.699 54.3825 67.6997 61.5314 67.6989C62.9316 67.7829 64.3215 66.6208 64.2707 65.2068C64.2361 63.5387 64.2279 61.8706 64.293 60.2046C64.2961 54.9815 64.2956 49.7585 64.2951 44.5355V44.5019C64.2946 39.2677 64.2941 34.0335 64.2971 28.7992C64.3276 27.9272 63.9043 27.0592 63.1595 26.5751C62.4911 26.0954 61.6572 26.1075 60.8558 26.1192C60.6715 26.1218 60.4889 26.1245 60.3104 26.1211C53.7569 26.1258 47.2035 26.1248 40.6501 26.1238C33.0882 26.1227 25.5262 26.1216 17.9643 26.1291C17.5023 26.1411 16.9935 26.0531 16.6842 25.6811C16.1042 25.0571 16.3851 23.911 17.2194 23.651C17.7282 23.5242 18.2525 23.5354 18.7746 23.5466C18.9855 23.5511 19.1961 23.5556 19.4051 23.551C27.4275 23.5533 35.4499 23.553 43.4719 23.5526H43.5032H43.5033H43.5035H43.5036H43.5038C49.5106 23.5524 55.5171 23.5521 61.5233 23.553C62.2308 23.5602 62.913 23.7224 63.5962 23.8848L63.5963 23.8849L63.5964 23.8849C64.0588 23.9948 64.5216 24.1049 64.9931 24.167C65.4636 24.2629 65.939 24.3379 66.4144 24.4128C67.1585 24.5301 67.9026 24.6474 68.6278 24.8451C69.5293 25.1031 69.7471 26.4131 69.0266 26.9772C68.5161 27.4404 67.8441 27.2937 67.2128 27.156C67.0237 27.1147 66.8382 27.0742 66.6619 27.0512L66.6713 27.0966C66.7884 27.6597 66.9062 28.2267 66.9122 28.8032C66.9102 33.7723 66.9107 38.7414 66.9112 43.7104C66.9117 48.6758 66.9122 53.6411 66.9102 58.6065C66.9014 59.4671 66.9203 60.3283 66.9391 61.1897V61.19V61.1902V61.1905V61.1907V61.191C66.9686 62.5372 66.9981 63.8837 66.9224 65.2288C66.8532 66.5408 66.3261 67.8409 65.3594 68.7629C64.3622 69.767 62.9417 70.207 61.564 70.403H5.54415C4.27832 70.177 2.96162 69.815 2.00106 68.9229C0.989624 68.0529 0.401484 66.7828 0.277344 65.4768V28.2572C0.462537 26.3771 1.7304 24.6391 3.52941 23.945C4.77291 23.4816 6.09625 23.5162 7.41564 23.5506C8.02666 23.5666 8.63683 23.5826 9.23783 23.549C9.83025 20.2557 10.4278 16.9623 11.0254 13.669L11.0255 13.6684L11.0258 13.6669C11.5571 10.7386 12.0884 7.81042 12.6161 4.88221L12.6319 4.79551L12.6319 4.7955L12.6319 4.79549L12.6319 4.79548L12.6319 4.79547L12.6319 4.79546C12.7342 4.23406 12.8369 3.67082 13.0536 3.14013C13.7415 1.45406 15.4041 0.188008 17.2479 0ZM10.4921 36.2371C11.8806 36.0673 13.2845 36.0905 14.6884 36.1137C15.517 36.1274 16.3457 36.1411 17.1712 36.1151C19.2226 36.0411 21.1111 37.7712 21.1478 39.7933C21.1641 41.8014 21.1641 43.8095 21.1478 45.8176C21.1132 47.7596 19.365 49.4597 17.393 49.4957C15.3539 49.5137 13.3147 49.5137 11.2756 49.4957C9.30967 49.4437 7.58595 47.7436 7.54322 45.8096C7.52802 44.4958 7.53064 43.182 7.53325 41.8688V41.8688V41.8687V41.8687V41.8686V41.8686V41.8683V41.868V41.8678V41.8675V41.8672C7.53449 41.2458 7.53573 40.6244 7.53508 40.0033C7.50048 38.2752 8.78258 36.6392 10.4921 36.2371ZM11.1392 38.7253C10.5674 38.8513 10.1196 39.4093 10.1563 39.9893C10.1441 41.8614 10.1461 43.7335 10.1542 45.6035C10.0972 46.3196 10.7607 46.9696 11.4872 46.9296C12.3483 46.9408 13.2094 46.9385 14.0706 46.9362C14.8986 46.934 15.7266 46.9318 16.5546 46.9416C16.6453 46.9387 16.7383 46.9388 16.8321 46.9388H16.8322H16.8322H16.8323H16.8323H16.8324C17.2563 46.9391 17.6991 46.9394 18.0422 46.6676C18.5123 46.3356 18.5775 45.7196 18.5937 45.1975C18.6039 43.3875 18.6039 41.5754 18.5123 39.7693C18.4696 39.1213 17.8184 38.6553 17.1814 38.6893C16.8671 38.678 16.5521 38.6649 16.2367 38.6517L16.2359 38.6517L16.2351 38.6516L16.2342 38.6516C14.5351 38.5808 12.8241 38.5094 11.1392 38.7253ZM51.1411 36.1143H51.1411C50.3364 36.1025 49.5315 36.0907 48.7347 36.2075C47.1311 36.4535 45.7085 37.5595 45.1082 39.0416C44.172 41.1717 44.752 43.9798 46.7546 45.3259C47.6195 45.9239 48.6838 46.1959 49.736 46.1719C50.2531 46.1719 50.7703 46.1728 51.2877 46.1736H51.2881H51.2885H51.2888H51.2892C52.5327 46.1757 53.7769 46.1778 55.0211 46.1679C56.5332 46.1759 58.0574 45.4679 58.9264 44.2358C60.5769 41.9757 60.0844 38.3436 57.5975 36.8535C56.3511 36.0693 54.8776 36.0911 53.4403 36.1124H53.44C53.0774 36.1178 52.7171 36.1231 52.3633 36.1155C51.9568 36.1262 51.5491 36.1203 51.1414 36.1143H51.1413H51.1413H51.1412H51.1411ZM48.0713 43.0438C46.6589 41.8597 47.1433 39.1836 49.0298 38.7696C50.189 38.6532 51.3577 38.6692 52.5265 38.6852C53.225 38.6947 53.9236 38.7043 54.6202 38.6856C55.656 38.6056 56.753 39.1556 57.1132 40.1496C57.7339 41.4757 56.9381 43.2958 55.4261 43.5678C54.5826 43.6769 53.7304 43.6618 52.8784 43.6466H52.8783H52.8782H52.8781H52.8781C52.3713 43.6376 51.8647 43.6286 51.36 43.6458C51.1411 43.6402 50.9147 43.6448 50.6855 43.6495H50.6853H50.6852H50.6851H50.685C49.7589 43.6684 48.7857 43.6882 48.0713 43.0438ZM9.52638 55.1306C10.6906 55.0426 11.8633 55.0559 13.0351 55.0692C13.6741 55.0765 14.3129 55.0838 14.9499 55.0746C15.9512 54.9586 16.7062 56.1926 16.1302 57.0047C15.7369 57.6806 14.883 57.6605 14.1873 57.6441L14.1257 57.6427C13.5198 57.6224 12.9125 57.6301 12.3055 57.6379C11.4199 57.6493 10.5348 57.6606 9.65459 57.5847C8.40098 57.3887 8.29923 55.4466 9.52638 55.1306ZM25.2094 55.0703C23.8387 55.0604 22.4678 55.0506 21.1009 55.104C20.5148 55.226 20.0508 55.816 20.1037 56.4101C20.1159 57.0881 20.755 57.6361 21.4347 57.6261C22.371 57.6427 23.3074 57.6397 24.2441 57.6368C25.0053 57.6344 25.7667 57.632 26.5285 57.6401C27.1146 57.6761 27.7882 57.4941 28.0589 56.9321C28.5453 56.1621 27.8574 55.036 26.9437 55.078C26.3659 55.0786 25.7878 55.0744 25.2096 55.0703H25.2095H25.2094ZM33.1321 55.1405C33.3685 55.0757 33.6137 55.0721 33.8578 55.0685C33.9227 55.0675 33.9875 55.0666 34.052 55.0645C35.6851 55.0735 37.3178 55.072 38.9504 55.0705H38.9522C40.5842 55.069 42.2163 55.0675 43.8489 55.0765C44.7911 55.0084 45.5054 56.1505 45.0068 56.9465C44.7219 57.5306 44.0137 57.6706 43.4154 57.6406C42.0354 57.6281 40.6546 57.6325 39.2739 57.637C37.3297 57.6432 35.3855 57.6495 33.4435 57.6086C32.1207 57.5426 31.8785 55.5285 33.1321 55.1405ZM54.6849 55.0709C53.0625 55.0557 51.4394 55.0406 49.8259 55.1346C48.6211 55.4746 48.7208 57.3747 49.9622 57.5827C51.2767 57.6609 52.5962 57.6493 53.916 57.6376C54.8234 57.6296 55.7311 57.6215 56.6373 57.6427C57.2845 57.6767 58.0843 57.5887 58.3997 56.9387C58.8963 56.1627 58.186 55.0266 57.2682 55.0786C56.4083 55.0869 55.5467 55.0789 54.6849 55.0709Z" fill="#262C42"/>
<path d="M18.6806 0L18.742 -0.346624L18.7116 -0.352015H18.6806V0ZM17.2479 0V-0.352015H17.23L17.2122 -0.350199L17.2479 0ZM47.3974 5.04164L47.458 4.69489L47.3974 5.04164ZM72.1037 9.3744L72.1692 9.0285L72.1649 9.02774L72.1037 9.3744ZM72.9547 9.51779L72.8996 9.86547L72.9547 9.51779ZM75.9765 10.4264L75.7882 10.724L75.7961 10.7287L75.9765 10.4264ZM78.4247 14.3526H78.7767V14.3334L78.7746 14.3143L78.4247 14.3526ZM78.4247 14.7286L78.7759 14.7526L78.7767 14.7406V14.7286H78.4247ZM78.0107 17.5089L78.3565 17.5745V17.5745L78.0107 17.5089ZM77.8081 18.6148L78.1545 18.6774L78.1551 18.6738L77.8081 18.6148ZM75.5065 31.3045L75.8528 31.3675L75.8528 31.3674L75.5065 31.3045ZM75.5012 31.3332L75.8467 31.4011L75.8476 31.3962L75.5012 31.3332ZM75.5011 31.3338L75.1557 31.2658L75.1545 31.2723L75.5011 31.3338ZM75.5009 31.3349L75.8473 31.3977L75.8475 31.3964L75.5009 31.3349ZM75.5004 31.3378L75.8466 31.4015L75.8468 31.4006L75.5004 31.3378ZM75.4997 31.3413L75.1535 31.2776L75.1534 31.2784L75.4997 31.3413ZM72.0467 50.4142L72.3915 50.4856L72.3932 50.4765L72.0467 50.4142ZM71.9828 50.7717L71.6355 50.7143L71.6355 50.7143L71.9828 50.7717ZM71.1899 52.2982L71.0343 51.9825L71.0193 51.9899L71.0051 51.9987L71.1899 52.2982ZM69.3116 51.4262L68.9607 51.4546L68.9618 51.4678L68.9638 51.4809L69.3116 51.4262ZM69.4112 50.2962L69.758 50.3565L69.7584 50.3541L69.4112 50.2962ZM69.4113 50.2955L69.0645 50.2353L69.0641 50.2376L69.4113 50.2955ZM69.4209 50.2405L69.7677 50.3007L69.7678 50.3L69.4209 50.2405ZM69.4357 50.1541L69.0895 50.0905L69.0888 50.0946L69.4357 50.1541ZM71.9001 36.5975L71.5537 36.5348L71.5537 36.5348L71.9001 36.5975ZM71.9006 36.5947L72.247 36.6574L72.247 36.6574L71.9006 36.5947ZM71.901 36.5924L72.2474 36.6551L72.2475 36.6549L71.901 36.5924ZM71.9016 36.5894L71.5552 36.5267L71.5552 36.5269L71.9016 36.5894ZM74.8775 20.2569L75.2237 20.3209L75.2881 19.9725L74.9393 19.9103L74.8775 20.2569ZM44.3908 14.8955L44.3289 15.2421L44.3302 15.2423L44.3908 14.8955ZM44.3907 14.8955L44.4526 14.549L44.4513 14.5487L44.3907 14.8955ZM20.6099 10.7245L20.6712 10.3778L20.652 10.3744L20.6326 10.3732L20.6099 10.7245ZM19.7959 8.60037L20.0408 8.85316L20.0552 8.83924L20.0679 8.82378L19.7959 8.60037ZM21.6539 8.30635L21.5843 8.65152L21.5927 8.65301L21.6539 8.30635ZM48.5675 13.0281L48.6286 12.6815L48.6281 12.6814L48.5675 13.0281ZM48.5694 13.0285L48.5082 13.3751L48.5088 13.3752L48.5694 13.0285ZM75.3273 17.7228L75.2661 18.0694L75.6407 18.1356L75.6776 17.7569L75.3273 17.7228ZM75.5493 16.4978L75.893 16.5739V16.5739L75.5493 16.4978ZM75.313 13.2586L75.0238 13.4592L75.0283 13.4657L75.033 13.4719L75.313 13.2586ZM72.6117 12.0516L72.6661 11.7038V11.7038L72.6117 12.0516ZM72.0182 11.9525L72.0836 11.6066L72.0787 11.6057L72.0182 11.9525ZM46.6312 7.5074L46.5703 7.85412L46.5703 7.85413L46.6312 7.5074ZM46.6242 7.50619L46.6851 7.15947L46.685 7.15946L46.6242 7.50619ZM46.6223 7.50585L46.5615 7.85257L46.5615 7.85258L46.6223 7.50585ZM46.6189 7.50525L46.6797 7.15853L46.6797 7.15853L46.6189 7.50525ZM19.5924 2.77412L19.6529 2.42724L19.6445 2.42599L19.5924 2.77412ZM19.0316 2.67318L19.0989 2.32766L19.0316 2.67318ZM17.0302 2.65211L17.1416 2.98623L17.1525 2.98219L17.0302 2.65211ZM15.2983 4.6982L15.6447 4.76171L15.6464 4.75075L15.2983 4.6982ZM14.6071 8.51434L14.9534 8.57782L14.9536 8.5767L14.6071 8.51434ZM14.6068 8.51605L14.2606 8.45258L14.2604 8.45369L14.6068 8.51605ZM13.3955 15.1226L13.0497 15.0569L12.9831 15.4076L13.3346 15.4693L13.3955 15.1226ZM22.8304 16.7751L22.7697 17.1218L22.7698 17.1218L22.8304 16.7751ZM22.8363 16.7761L22.7758 17.1229L22.776 17.1229L22.8363 16.7761ZM22.8384 16.7765L22.899 16.4297L22.8988 16.4297L22.8384 16.7765ZM37.5011 19.3508L37.4398 19.6974L37.4632 19.7016L37.4869 19.7026L37.5011 19.3508ZM38.4291 21.4789L38.1753 21.235L38.1685 21.2421L38.1621 21.2495L38.4291 21.4789ZM36.4416 21.7723L36.3708 22.1171L36.4416 21.7723ZM35.9748 21.6849L35.9142 22.0318L35.9228 22.0331L35.9748 21.6849ZM27.942 20.2746L28.003 19.9279L28.0029 19.9279L27.942 20.2746ZM27.9374 20.2738L27.9983 19.9271L27.9977 19.927L27.9374 20.2738ZM27.9322 20.2729L27.8712 20.6196L27.8718 20.6197L27.9322 20.2729ZM12.9417 17.6548L13.0014 17.3078L12.6565 17.2485L12.5951 17.593L12.9417 17.6548ZM12.8023 18.4371L12.4557 18.3753L12.4555 18.3764L12.8023 18.4371ZM12.8023 18.4372L13.1488 18.4989L13.149 18.4979L12.8023 18.4372ZM11.6067 25.0091L11.2608 24.9435L11.2591 24.9527L11.2578 24.9619L11.6067 25.0091ZM10.4385 26.1071L10.4244 25.7554L10.4229 25.7554L10.4385 26.1071ZM7.95903 26.1236L7.96331 25.7716H7.95903V26.1236ZM7.95893 26.1236L7.95465 26.4756H7.95893V26.1236ZM5.15341 26.1571L5.13222 25.8056L5.12348 25.8064L5.15341 26.1571ZM2.87818 28.7852L3.2302 28.7849L3.23019 28.7766L3.2298 28.7684L2.87818 28.7852ZM2.87752 41.1314L3.22953 41.1316L2.87752 41.1314ZM2.90668 63.9947L3.2587 63.9964L3.25869 63.993L2.90668 63.9947ZM2.89879 64.3988L3.25068 64.4083L2.89879 64.3988ZM3.35236 66.5948L3.64237 66.3953L3.63596 66.386L3.62897 66.3771L3.35236 66.5948ZM5.77615 67.7009L5.776 67.3489H5.76813L5.76027 67.3492L5.77615 67.7009ZM40.0835 67.6982L40.0835 68.0503H40.0835V67.6982ZM40.084 67.6982L40.0841 67.3462H40.084V67.6982ZM61.5314 67.6989L61.5525 67.3475L61.542 67.3469H61.5314L61.5314 67.6989ZM64.2707 65.2068L63.9187 65.2141L63.9189 65.2194L64.2707 65.2068ZM64.293 60.2046L64.645 60.2183L64.6451 60.2048L64.293 60.2046ZM64.2951 44.5355H63.9431V44.5355L64.2951 44.5355ZM64.2951 44.5019H64.6471V44.5019L64.2951 44.5019ZM64.2971 28.7992L63.9451 28.7869L63.9451 28.799L64.2971 28.7992ZM63.1595 26.5751L62.9543 26.8611L62.9609 26.8659L62.9677 26.8703L63.1595 26.5751ZM60.8558 26.1192L60.8507 25.7672H60.8507L60.8558 26.1192ZM60.3104 26.1211L60.317 25.7691L60.3101 25.7691L60.3104 26.1211ZM40.6501 26.1238L40.6502 25.7718L40.6501 26.1238ZM17.9643 26.1291L17.9639 25.777L17.9551 25.7772L17.9643 26.1291ZM16.6842 25.6811L16.9549 25.456L16.9487 25.4486L16.9421 25.4414L16.6842 25.6811ZM17.2194 23.651L17.1343 23.3094L17.1244 23.3119L17.1147 23.3149L17.2194 23.651ZM18.7746 23.5466L18.7822 23.1947L18.7746 23.5466ZM19.4051 23.551L19.4052 23.1989L19.3974 23.1991L19.4051 23.551ZM43.4719 23.5526V23.2006H43.4719L43.4719 23.5526ZM43.5038 23.5526V23.9047H43.5038L43.5038 23.5526ZM61.5233 23.553L61.5268 23.201H61.5233L61.5233 23.553ZM63.5962 23.8848L63.5148 24.2274L63.5225 24.229L63.5962 23.8848ZM63.5963 23.8849L63.6817 23.5431L63.6701 23.5406L63.5963 23.8849ZM63.5964 23.8849L63.511 24.2264L63.5149 24.2273L63.5964 23.8849ZM64.9931 24.167L65.0634 23.8221L65.0513 23.8196L65.0391 23.818L64.9931 24.167ZM66.4144 24.4128L66.3596 24.7605L66.4144 24.4128ZM68.6278 24.8451L68.7246 24.5066L68.7204 24.5054L68.6278 24.8451ZM69.0266 26.9772L68.8096 26.7L68.7996 26.7079L68.7901 26.7165L69.0266 26.9772ZM67.2128 27.156L67.2879 26.812L67.2128 27.156ZM66.6619 27.0512L66.7075 26.7021L66.2165 26.6379L66.3172 27.1228L66.6619 27.0512ZM66.6713 27.0966L66.3267 27.1683V27.1683L66.6713 27.0966ZM66.9122 28.8032L67.2642 28.8034L67.2642 28.7996L66.9122 28.8032ZM66.9112 43.7104L66.5592 43.7105L66.9112 43.7104ZM66.9102 58.6065L67.2622 58.6101V58.6066L66.9102 58.6065ZM66.9391 61.1897H67.2912L67.2911 61.182L66.9391 61.1897ZM66.9391 61.191H66.587L66.5872 61.1987L66.9391 61.191ZM66.9224 65.2288L66.5709 65.209L66.5708 65.2102L66.9224 65.2288ZM65.3594 68.7629L65.1164 68.5081L65.1097 68.5149L65.3594 68.7629ZM61.564 70.403V70.755H61.5889L61.6136 70.7515L61.564 70.403ZM5.54415 70.403L5.48228 70.7495L5.51297 70.755H5.54415V70.403ZM2.00106 68.9229L2.24078 68.6648L2.23062 68.6561L2.00106 68.9229ZM0.277344 65.4768H-0.0746713V65.4935L-0.0730919 65.5101L0.277344 65.4768ZM0.277344 28.2572L-0.0729759 28.2227L-0.0746713 28.2399V28.2572H0.277344ZM3.52941 23.945L3.40648 23.6151L3.40271 23.6166L3.52941 23.945ZM7.41564 23.5506L7.42484 23.1988H7.42483L7.41564 23.5506ZM9.23783 23.549L9.25745 23.9005L9.53506 23.885L9.58429 23.6113L9.23783 23.549ZM11.0254 13.669L11.3717 13.7319L11.3718 13.7315L11.0254 13.669ZM11.0255 13.6684L10.6791 13.6057L10.6791 13.6059L11.0255 13.6684ZM11.0258 13.6669L10.6794 13.604L10.6794 13.6042L11.0258 13.6669ZM12.6161 4.88221L12.2698 4.81903L12.2696 4.81978L12.6161 4.88221ZM12.6319 4.79551L12.2934 4.6988L12.2887 4.71538L12.2856 4.73233L12.6319 4.79551ZM12.6319 4.7955L12.2979 4.68418L12.2955 4.69144L12.2934 4.69879L12.6319 4.7955ZM12.6319 4.79546L12.9659 4.90678L12.9737 4.88311L12.9782 4.85857L12.6319 4.79546ZM13.0536 3.14013L13.3795 3.27324L13.3796 3.2731L13.0536 3.14013ZM14.6884 36.1137L14.6826 36.4657H14.6826L14.6884 36.1137ZM10.4921 36.2371L10.4493 35.8877L10.4302 35.8901L10.4115 35.8945L10.4921 36.2371ZM17.1712 36.1151L17.1823 36.467L17.1839 36.4669L17.1712 36.1151ZM21.1478 39.7933L21.4998 39.7904L21.4997 39.7869L21.1478 39.7933ZM21.1478 45.8176L21.4997 45.8238L21.4998 45.8204L21.1478 45.8176ZM17.393 49.4957L17.3961 49.8477L17.3995 49.8477L17.393 49.4957ZM11.2756 49.4957L11.2663 49.8477L11.2725 49.8477L11.2756 49.4957ZM7.54322 45.8096L7.1912 45.8136L7.19129 45.8173L7.54322 45.8096ZM7.53325 41.8688L7.88527 41.8695V41.8688H7.53325ZM7.53325 41.8672L7.18124 41.8665V41.8672H7.53325ZM7.53508 40.0033L7.88715 40.0029L7.88702 39.9963L7.53508 40.0033ZM10.1563 39.9893L10.5083 39.9916L10.5084 39.9794L10.5076 39.9671L10.1563 39.9893ZM11.1392 38.7253L11.0945 38.3761L11.0789 38.3781L11.0635 38.3815L11.1392 38.7253ZM10.1542 45.6035L10.5051 45.6315L10.5063 45.6168L10.5062 45.602L10.1542 45.6035ZM11.4872 46.9296L11.4918 46.5776L11.4798 46.5775L11.4679 46.5781L11.4872 46.9296ZM14.0706 46.9362L14.0696 46.5842H14.0696L14.0706 46.9362ZM16.5546 46.9416L16.5504 47.2936L16.5581 47.2937L16.5658 47.2934L16.5546 46.9416ZM16.8321 46.9388L16.8319 47.2908H16.8321V46.9388ZM16.8324 46.9388L16.8326 46.5868H16.8324V46.9388ZM18.0422 46.6676L17.8392 46.3801L17.8313 46.3856L17.8237 46.3916L18.0422 46.6676ZM18.5937 45.1975L18.9457 45.2085L18.9457 45.1995L18.5937 45.1975ZM18.5123 39.7693L18.8639 39.7515L18.8636 39.7461L18.5123 39.7693ZM17.1814 38.6893L17.1688 39.041L17.1845 39.0416L17.2001 39.0408L17.1814 38.6893ZM16.2367 38.6517L16.2208 39.0034L16.222 39.0034L16.2367 38.6517ZM16.2359 38.6517L16.2518 38.3L16.2506 38.3L16.2359 38.6517ZM16.2351 38.6516L16.2498 38.2999L16.2488 38.2999L16.2351 38.6516ZM16.2342 38.6516L16.2196 39.0033L16.2206 39.0034L16.2342 38.6516ZM51.1411 36.1143L51.1359 36.4663H51.1411V36.1143ZM48.7347 36.2075L48.6837 35.8592L48.6813 35.8595L48.7347 36.2075ZM45.1082 39.0416L45.4306 39.1833L45.4344 39.1738L45.1082 39.0416ZM46.7546 45.3259L46.9548 45.0363L46.9509 45.0337L46.7546 45.3259ZM49.736 46.1719V45.8198L49.7279 45.82L49.736 46.1719ZM51.2877 46.1736L51.2871 46.5257H51.2877V46.1736ZM51.2892 46.1736L51.2898 45.8216H51.2892V46.1736ZM55.0211 46.1679L55.023 45.8159L55.0183 45.8159L55.0211 46.1679ZM58.9264 44.2358L58.6421 44.0282L58.6388 44.0329L58.9264 44.2358ZM57.5975 36.8535L57.41 37.1515L57.4166 37.1555L57.5975 36.8535ZM53.4403 36.1124V36.4645L53.4455 36.4644L53.4403 36.1124ZM53.44 36.1124V35.7604L53.4347 35.7604L53.44 36.1124ZM52.3633 36.1155L52.3709 35.7635L52.3624 35.7634L52.354 35.7636L52.3633 36.1155ZM51.1414 36.1143L51.1466 35.7623H51.1414V36.1143ZM49.0298 38.7696L48.9946 38.4193L48.9743 38.4214L48.9543 38.4257L49.0298 38.7696ZM48.0713 43.0438L48.3072 42.7822L48.2974 42.774L48.0713 43.0438ZM52.5265 38.6852L52.5217 39.0371L52.5265 38.6852ZM54.6202 38.6856L54.6296 39.0375L54.6385 39.0372L54.6473 39.0366L54.6202 38.6856ZM57.1132 40.1496L56.7822 40.2696L56.7876 40.2845L56.7943 40.2989L57.1132 40.1496ZM55.4261 43.5678L55.4712 43.9169L55.4799 43.9158L55.4884 43.9142L55.4261 43.5678ZM52.8784 43.6466L52.8846 43.2946H52.8784V43.6466ZM52.8781 43.6466L52.8718 43.9986H52.8781V43.6466ZM51.36 43.6458L51.351 43.9977L51.3615 43.998L51.3719 43.9976L51.36 43.6458ZM50.6855 43.6495V44.0016L50.6926 44.0015L50.6855 43.6495ZM50.685 43.6495V43.2974L50.6779 43.2976L50.685 43.6495ZM13.0351 55.0692L13.0311 55.4212H13.0311L13.0351 55.0692ZM9.52638 55.1306L9.49985 54.7796L9.46877 54.7819L9.4386 54.7897L9.52638 55.1306ZM14.9499 55.0746L14.955 55.4266L14.9727 55.4263L14.9904 55.4243L14.9499 55.0746ZM16.1302 57.0047L15.8431 56.801L15.8339 56.8139L15.826 56.8276L16.1302 57.0047ZM14.1873 57.6441L14.1956 57.2922L14.1955 57.2922L14.1873 57.6441ZM14.1257 57.6427L14.1139 57.9945L14.1175 57.9946L14.1257 57.6427ZM12.3055 57.6379L12.31 57.9899H12.31L12.3055 57.6379ZM9.65459 57.5847L9.60021 57.9325L9.61222 57.9344L9.62433 57.9354L9.65459 57.5847ZM21.1009 55.104L21.0872 54.7523L21.0579 54.7534L21.0292 54.7594L21.1009 55.104ZM25.2094 55.0703L25.2069 55.4223H25.2094V55.0703ZM20.1037 56.4101L20.4557 56.4037L20.4555 56.3913L20.4544 56.3788L20.1037 56.4101ZM21.4347 57.6261L21.4409 57.274L21.4295 57.2741L21.4347 57.6261ZM24.2441 57.6368L24.243 57.2848H24.243L24.2441 57.6368ZM26.5285 57.6401L26.5501 57.2888L26.5412 57.2882L26.5322 57.2881L26.5285 57.6401ZM28.0589 56.9321L27.7613 56.7441L27.7505 56.7612L27.7417 56.7794L28.0589 56.9321ZM26.9437 55.078L26.944 55.43L26.9519 55.43L26.9598 55.4297L26.9437 55.078ZM25.2096 55.0703L25.2121 54.7183H25.2096V55.0703ZM33.8578 55.0685L33.8526 54.7165H33.8526L33.8578 55.0685ZM33.1321 55.1405L33.039 54.8008L33.028 54.8042L33.1321 55.1405ZM34.052 55.0645L34.0539 54.7122L34.0405 54.7126L34.052 55.0645ZM38.9504 55.0705V54.7184H38.9501L38.9504 55.0705ZM38.9522 55.0705V55.4225H38.9525L38.9522 55.0705ZM43.8489 55.0765L43.8469 55.4285L43.8606 55.4285L43.8742 55.4276L43.8489 55.0765ZM45.0068 56.9465L44.7085 56.7597L44.6986 56.7755L44.6905 56.7922L45.0068 56.9465ZM43.4154 57.6406L43.433 57.289L43.4258 57.2886L43.4186 57.2886L43.4154 57.6406ZM39.2739 57.637L39.2728 57.285L39.2739 57.637ZM33.4435 57.6086L33.4259 57.9603L33.4361 57.9605L33.4435 57.6086ZM49.8259 55.1346L49.8054 54.7832L49.7671 54.7854L49.7303 54.7958L49.8259 55.1346ZM54.6849 55.0709L54.6816 55.4229L54.6849 55.0709ZM49.9622 57.5827L49.9041 57.9299L49.9226 57.933L49.9413 57.9341L49.9622 57.5827ZM53.916 57.6376L53.9129 57.2856L53.916 57.6376ZM56.6373 57.6427L56.6558 57.291L56.6455 57.2908L56.6373 57.6427ZM58.3997 56.9387L58.1032 56.749L58.092 56.7664L58.083 56.785L58.3997 56.9387ZM57.2682 55.0786L57.2716 55.4306L57.2799 55.4305L57.2881 55.4301L57.2682 55.0786ZM18.6806 -0.352015H17.2479V0.352015H18.6806V-0.352015ZM47.458 4.69489C37.8845 3.02126 28.3115 1.34771 18.742 -0.346624L18.6193 0.346624C28.1896 2.04112 37.7634 3.71479 47.3368 5.3884L47.458 4.69489ZM72.1649 9.02774C63.9306 7.57459 55.6941 6.13471 47.458 4.69489L47.3368 5.3884C55.573 6.82823 63.8089 8.26802 72.0425 9.72106L72.1649 9.02774ZM73.0097 9.1701C72.723 9.12471 72.4434 9.08042 72.1692 9.02852L72.0382 9.72028C72.3247 9.77448 72.6147 9.82037 72.8996 9.86547L73.0097 9.1701ZM76.1647 10.129C75.1859 9.50973 74.0468 9.33429 73.0097 9.1701L72.8996 9.86547C73.9634 10.0339 74.9529 10.1954 75.7883 10.7239L76.1647 10.129ZM78.7746 14.3143C78.5909 12.6361 77.6552 11.0185 76.1569 10.1242L75.7961 10.7287C77.0858 11.4985 77.9125 12.909 78.0748 14.3909L78.7746 14.3143ZM78.7767 14.7286V14.3526H78.0727V14.7286H78.7767ZM78.3565 17.5745C78.5308 16.6563 78.7102 15.713 78.7759 14.7526L78.0735 14.7046C78.0112 15.616 77.8404 16.518 77.6648 17.4433L78.3565 17.5745ZM78.1551 18.6738C78.2172 18.3087 78.2865 17.9436 78.3565 17.5745L77.6648 17.4433C77.595 17.8112 77.5245 18.1829 77.461 18.5558L78.1551 18.6738ZM75.8528 31.3674C76.6211 27.1377 77.3894 22.9079 78.1544 18.6774L77.4617 18.5521C76.6966 22.7823 75.9284 27.0119 75.1601 31.2416L75.8528 31.3674ZM75.8476 31.3962L75.8528 31.3675L75.1601 31.2415L75.1549 31.2702L75.8476 31.3962ZM75.8465 31.4017L75.8466 31.4011L75.1558 31.2652L75.1557 31.2658L75.8465 31.4017ZM75.8475 31.3964L75.8477 31.3952L75.1545 31.2723L75.1543 31.2735L75.8475 31.3964ZM75.8468 31.4006L75.8473 31.3977L75.1545 31.2722L75.154 31.2751L75.8468 31.4006ZM75.846 31.405L75.8466 31.4015L75.1542 31.2742L75.1535 31.2776L75.846 31.405ZM72.3932 50.4765C73.5368 44.1178 74.6914 37.7612 75.8461 31.4042L75.1534 31.2784C73.9987 37.6352 72.844 43.9924 71.7003 50.3518L72.3932 50.4765ZM72.3301 50.8291C72.3506 50.7051 72.3694 50.5919 72.3914 50.4856L71.702 50.3427C71.6766 50.4655 71.6555 50.5931 71.6355 50.7143L72.3301 50.8291ZM71.3456 52.614C71.7359 52.4216 71.9598 52.1106 72.0955 51.7831C72.2262 51.4676 72.2825 51.1169 72.3301 50.8291L71.6355 50.7143C71.5852 51.0189 71.5393 51.2864 71.4451 51.5136C71.356 51.7288 71.2324 51.8849 71.0343 51.9825L71.3456 52.614ZM68.9638 51.4809C69.0485 52.0191 69.4314 52.4344 69.8784 52.6467C70.3271 52.8598 70.8948 52.894 71.3748 52.5978L71.0051 51.9987C70.7688 52.1445 70.4604 52.1437 70.1805 52.0108C69.8989 51.8771 69.7008 51.6353 69.6593 51.3715L68.9638 51.4809ZM69.0644 50.2359C69.0008 50.6018 68.9258 51.0227 68.9607 51.4546L69.6624 51.3978C69.6359 51.07 69.6918 50.7377 69.758 50.3565L69.0644 50.2359ZM69.0641 50.2376L69.064 50.2383L69.7584 50.3541L69.7586 50.3534L69.0641 50.2376ZM69.0741 50.1803L69.0645 50.2353L69.7581 50.3557L69.7677 50.3007L69.0741 50.1803ZM69.0888 50.0946L69.0739 50.1809L69.7678 50.3L69.7826 50.2137L69.0888 50.0946ZM71.5537 36.5348C70.7363 41.0546 69.9189 45.5739 69.0895 50.0906L69.7819 50.2177C70.6116 45.6999 71.4291 41.1798 72.2465 36.6601L71.5537 36.5348ZM71.5543 36.532L71.5537 36.5348L72.2465 36.6602L72.247 36.6574L71.5543 36.532ZM71.5547 36.5298L71.5542 36.532L72.247 36.6574L72.2474 36.6551L71.5547 36.5298ZM71.5552 36.5269L71.5546 36.5299L72.2475 36.6549L72.248 36.6519L71.5552 36.5269ZM74.5314 20.1929C73.5251 25.6351 72.5401 31.0813 71.5552 36.5267L72.248 36.652C73.2329 31.2064 74.2177 25.7615 75.2237 20.3209L74.5314 20.1929ZM44.3302 15.2423C54.495 17.0179 64.659 18.7933 74.8158 20.6034L74.9393 19.9103C64.7811 18.0999 54.616 16.3243 44.4514 14.5488L44.3302 15.2423ZM44.3288 15.242L44.3289 15.2421L44.4527 14.549L44.4526 14.549L44.3288 15.242ZM20.5486 11.0711C28.4739 12.4725 36.4023 13.8575 44.3301 15.2423L44.4513 14.5487C36.5233 13.1639 28.5957 11.7791 20.6712 10.3778L20.5486 11.0711ZM19.5509 8.34757C19.0654 8.81801 19.0134 9.4909 19.2195 10.0278C19.4255 10.5646 19.9141 11.0322 20.5872 11.0757L20.6326 10.3732C20.2861 10.3507 20.0044 10.1083 19.8767 9.77553C19.7491 9.44291 19.7998 9.08675 20.0408 8.85316L19.5509 8.34757ZM21.7235 7.96129C21.4163 7.89933 21.0236 7.82238 20.6425 7.84469C20.2495 7.86769 19.8348 7.99828 19.5238 8.37696L20.0679 8.82378C20.2168 8.64243 20.4188 8.56301 20.6836 8.54751C20.9604 8.53132 21.2667 8.58737 21.5843 8.65142L21.7235 7.96129ZM48.6281 12.6814C39.6557 11.1123 30.6838 9.54328 21.7151 7.9597L21.5927 8.65301C30.5621 10.2367 39.5345 11.8058 48.5068 13.3749L48.6281 12.6814ZM48.629 12.6815L48.6286 12.6815L48.5063 13.3748L48.5067 13.3749L48.629 12.6815ZM48.6294 12.6816L48.629 12.6815L48.5067 13.3749L48.5071 13.3749L48.6294 12.6816ZM48.6298 12.6817L48.6294 12.6816L48.5071 13.3749L48.5075 13.375L48.6298 12.6817ZM48.6302 12.6817L48.6298 12.6817L48.5075 13.375L48.5078 13.3751L48.6302 12.6817ZM48.6306 12.6818L48.6302 12.6817L48.5078 13.3751L48.5082 13.3751L48.6306 12.6818ZM75.3885 17.3761C66.4705 15.8017 57.55 14.2416 48.63 12.6817L48.5088 13.3752C57.4288 14.9352 66.3487 16.4951 75.2661 18.0694L75.3885 17.3761ZM75.2056 16.4218C75.1144 16.8337 75.018 17.2671 74.9769 17.6886L75.6776 17.7569C75.7138 17.3854 75.7998 16.9947 75.893 16.5739L75.2056 16.4218ZM75.033 13.4719C75.6566 14.2902 75.4612 15.2668 75.2056 16.4218L75.893 16.5739C76.1326 15.4909 76.4467 14.1656 75.593 13.0452L75.033 13.4719ZM72.5574 12.3994C73.6046 12.5631 74.5139 12.7243 75.0238 13.4592L75.6023 13.0579C74.891 12.0326 73.6405 11.8561 72.6661 11.7038L72.5574 12.3994ZM71.9529 12.2984C72.1515 12.3359 72.3564 12.3679 72.5574 12.3994L72.6661 11.7038C72.463 11.672 72.2693 11.6417 72.0836 11.6066L71.9529 12.2984ZM46.5703 7.85413C55.0322 9.33816 63.4942 10.8222 71.9577 12.2993L72.0787 11.6057C63.6156 10.1288 55.1538 8.64473 46.692 7.16068L46.5703 7.85413ZM46.5634 7.85291L46.5703 7.85412L46.692 7.16068L46.6851 7.15947L46.5634 7.85291ZM46.5615 7.85258L46.5635 7.85292L46.685 7.15946L46.6831 7.15912L46.5615 7.85258ZM46.5581 7.85197L46.5615 7.85257L46.6831 7.15913L46.6797 7.15853L46.5581 7.85197ZM19.5319 3.1209C28.5416 4.69224 37.5497 6.27208 46.5581 7.85197L46.6797 7.15853C37.6714 5.57865 28.6629 3.99874 19.6528 2.42734L19.5319 3.1209ZM18.9643 3.0187C19.1513 3.05514 19.3462 3.09316 19.5402 3.12224L19.6445 2.42599C19.4683 2.39958 19.2887 2.36464 19.0989 2.32766L18.9643 3.0187ZM17.1525 2.98219C17.6966 2.78052 18.278 2.88503 18.9643 3.0187L19.0989 2.32766C18.4506 2.20139 17.6682 2.04022 16.9078 2.32204L17.1525 2.98219ZM15.6464 4.75075C15.7669 3.95283 16.3602 3.24662 17.1415 2.98605L16.9188 2.31818C15.8889 2.66163 15.1106 3.58349 14.9502 4.64565L15.6464 4.75075ZM14.9536 8.5767C15.1826 7.30428 15.4116 6.03254 15.6446 4.76168L14.9521 4.63472C14.7188 5.90687 14.4897 7.17974 14.2607 8.45197L14.9536 8.5767ZM14.9533 8.57816L14.9534 8.57782L14.2609 8.45086L14.2608 8.4512L14.9533 8.57816ZM14.9532 8.5785L14.9533 8.57816L14.2608 8.4512L14.2607 8.45155L14.9532 8.5785ZM14.9532 8.57885L14.9532 8.5785L14.2607 8.45155L14.2607 8.45189L14.9532 8.57885ZM14.9531 8.57919L14.9532 8.57885L14.2607 8.45189L14.2606 8.45223L14.9531 8.57919ZM14.953 8.57953L14.9531 8.57919L14.2606 8.45223L14.2606 8.45258L14.953 8.57953ZM13.7413 15.1884C14.1596 12.9869 14.5566 10.7816 14.9532 8.57842L14.2604 8.45369C13.8636 10.6575 13.4673 12.8593 13.0497 15.0569L13.7413 15.1884ZM22.891 16.4283C19.7458 15.8784 16.6008 15.3286 13.4564 14.7759L13.3346 15.4693C16.4793 16.022 19.6246 16.5719 22.7697 17.1218L22.891 16.4283ZM22.8969 16.4294L22.8909 16.4283L22.7698 17.1218L22.7758 17.1229L22.8969 16.4294ZM22.8988 16.4297L22.8967 16.4293L22.776 17.1229L22.778 17.1233L22.8988 16.4297ZM37.5625 19.0042C32.676 18.1391 27.7873 17.2844 22.899 16.4297L22.7778 17.1232C27.6661 17.9779 32.5541 18.8325 37.4398 19.6974L37.5625 19.0042ZM38.6829 21.7229C39.1663 21.22 39.1909 20.538 38.9512 20.0019C38.7127 19.4687 38.191 19.0263 37.5153 18.9991L37.4869 19.7026C37.8532 19.7173 38.1608 19.959 38.3085 20.2893C38.4549 20.6167 38.4225 20.9778 38.1753 21.235L38.6829 21.7229ZM36.3708 22.1171C36.7126 22.1872 37.1267 22.2742 37.5243 22.2548C37.9391 22.2345 38.3617 22.0977 38.6961 21.7083L38.1621 21.2495C37.9846 21.4562 37.765 21.5381 37.4899 21.5516C37.1974 21.5659 36.8738 21.5016 36.5123 21.4275L36.3708 22.1171ZM35.9228 22.0331C36.0611 22.0537 36.2083 22.0838 36.3708 22.1171L36.5123 21.4275C36.3538 21.395 36.1873 21.3607 36.0268 21.3368L35.9228 22.0331ZM27.881 20.6213C30.5586 21.0924 33.2363 21.5635 35.9142 22.0317L36.0354 21.3382C33.3579 20.8701 30.6807 20.399 28.003 19.9279L27.881 20.6213ZM27.8765 20.6205L27.8811 20.6213L28.0029 19.9279L27.9983 19.9271L27.8765 20.6205ZM27.8761 20.6204L27.8771 20.6206L27.9977 19.927L27.9967 19.9268L27.8761 20.6204ZM27.875 20.6203L27.8761 20.6204L27.9967 19.9268L27.9956 19.9266L27.875 20.6203ZM27.874 20.6201L27.875 20.6203L27.9956 19.9266L27.9946 19.9265L27.874 20.6201ZM27.8729 20.6199L27.874 20.6201L27.9946 19.9265L27.9935 19.9263L27.8729 20.6199ZM27.8718 20.6197L27.8729 20.6199L27.9935 19.9263L27.9925 19.9261L27.8718 20.6197ZM12.882 18.0017C17.8806 18.8619 22.8758 19.7407 27.8712 20.6196L27.9932 19.9262C22.998 19.0474 18.0015 18.1683 13.0014 17.3078L12.882 18.0017ZM13.1488 18.4988L13.2882 17.7165L12.5951 17.593L12.4557 18.3753L13.1488 18.4988ZM13.149 18.4979L13.149 18.4978L12.4555 18.3764L12.4555 18.3765L13.149 18.4979ZM11.9525 25.0746C12.3676 22.8845 12.7583 20.6915 13.1488 18.4989L12.4557 18.3755C12.065 20.5686 11.6751 22.7578 11.2608 24.9435L11.9525 25.0746ZM10.4526 26.4588C11.2389 26.4273 11.8577 25.7799 11.9555 25.0562L11.2578 24.9619C11.201 25.3823 10.8348 25.7389 10.4244 25.7554L10.4526 26.4588ZM7.95475 26.4756C8.77995 26.4856 9.61689 26.4959 10.4541 26.4588L10.4229 25.7554C9.60889 25.7915 8.79184 25.7817 7.96331 25.7716L7.95475 26.4756ZM7.95901 26.4756H7.95903V25.7716H7.95901V26.4756ZM7.95899 26.4756H7.95901V25.7716H7.95899V26.4756ZM7.95897 26.4756H7.95899V25.7716H7.95897V26.4756ZM7.95895 26.4756H7.95897V25.7716H7.95895V26.4756ZM7.95893 26.4756H7.95895V25.7716H7.95893V26.4756ZM5.17459 26.5085C6.09334 26.4531 7.01647 26.4642 7.95465 26.4756L7.96321 25.7716C7.0293 25.7602 6.08066 25.7486 5.13223 25.8057L5.17459 26.5085ZM3.2298 28.7684C3.17739 27.673 4.06758 26.6031 5.18334 26.5079L5.12348 25.8064C3.61398 25.9352 2.45687 27.3453 2.52657 28.802L3.2298 28.7684ZM3.22953 41.1316C3.23201 37.0163 3.23448 32.9006 3.2302 28.7849L2.52617 28.7856C2.53045 32.9006 2.52798 37.0157 2.5255 41.1312L3.22953 41.1316ZM3.25869 63.993C3.22037 56.373 3.22495 48.7529 3.22953 41.1316L2.5255 41.1312C2.52092 48.7521 2.51634 56.3742 2.55467 63.9965L3.25869 63.993ZM3.25068 64.4083C3.25431 64.2726 3.25805 64.1335 3.25869 63.9964L2.55466 63.9931C2.55407 64.1211 2.55057 64.2523 2.54691 64.3894L3.25068 64.4083ZM3.62897 66.3771C3.22535 65.8643 3.22955 65.1984 3.25068 64.4083L2.54691 64.3894C2.52723 65.1251 2.48843 66.0664 3.07575 66.8126L3.62897 66.3771ZM5.76027 67.3492C4.92421 67.387 4.09041 67.0465 3.64237 66.3953L3.06235 66.7944C3.67662 67.6872 4.76802 68.0988 5.79203 68.0525L5.76027 67.3492ZM40.0836 67.3462C28.6476 67.3451 17.2114 67.3439 5.776 67.3489L5.7763 68.0529C17.2115 68.048 28.6475 68.0491 40.0835 68.0503L40.0836 67.3462ZM40.0836 67.3462H40.0835V68.0503H40.0836V67.3462ZM40.0837 67.3462H40.0836V68.0503H40.0837V67.3462ZM40.0838 67.3462H40.0837V68.0503H40.0838V67.3462ZM40.0839 67.3462H40.0838V68.0503H40.0839V67.3462ZM40.084 67.3462H40.0839V68.0503H40.084V67.3462ZM61.5314 67.3469C54.3825 67.3476 47.2334 67.3469 40.0841 67.3462L40.084 68.0503C47.2333 68.051 54.3825 68.0517 61.5315 68.0509L61.5314 67.3469ZM63.9189 65.2194C63.9611 66.3925 62.7802 67.4212 61.5525 67.3475L61.5103 68.0503C63.083 68.1446 64.682 66.8492 64.6224 65.1941L63.9189 65.2194ZM63.9413 60.1908C63.8758 61.8668 63.884 63.5427 63.9187 65.2141L64.6226 65.1995C64.5881 63.5347 64.58 61.8745 64.6448 60.2183L63.9413 60.1908ZM63.9431 44.5355C63.9436 49.7585 63.9441 54.9815 63.941 60.2044L64.6451 60.2048C64.6481 54.9816 64.6476 49.7584 64.6471 44.5354L63.9431 44.5355ZM63.9431 44.5019V44.5355H64.6471V44.5019H63.9431ZM63.9451 28.799C63.942 34.0334 63.9425 39.2677 63.9431 44.5019L64.6471 44.5019C64.6466 39.2676 64.6461 34.0335 64.6491 28.7994L63.9451 28.799ZM62.9677 26.8703C63.6034 27.2834 63.9717 28.0316 63.9453 28.7869L64.6489 28.8115C64.6835 27.8227 64.2052 26.8349 63.3513 26.28L62.9677 26.8703ZM60.8609 26.4711C61.6873 26.4592 62.3962 26.4606 62.9543 26.8611L63.3647 26.2891C62.586 25.7303 61.6271 25.7559 60.8507 25.7672L60.8609 26.4711ZM60.3037 26.4731C60.4891 26.4766 60.6777 26.4738 60.8609 26.4711L60.8507 25.7672C60.6653 25.7699 60.4886 25.7724 60.317 25.7692L60.3037 26.4731ZM40.65 26.4758C47.2034 26.4768 53.757 26.4778 60.3106 26.4731L60.3101 25.7691C53.7569 25.7737 47.2036 25.7728 40.6502 25.7718L40.65 26.4758ZM17.9646 26.4811C25.5263 26.4736 33.0881 26.4747 40.65 26.4758L40.6502 25.7718C33.0882 25.7707 25.5261 25.7696 17.9639 25.7771L17.9646 26.4811ZM16.4135 25.9062C16.8303 26.4074 17.4833 26.4937 17.9734 26.481L17.9551 25.7772C17.5213 25.7885 17.1568 25.6989 16.9549 25.456L16.4135 25.9062ZM17.1147 23.3149C16.5608 23.4876 16.2072 23.9489 16.0805 24.4419C15.9542 24.9336 16.0407 25.5058 16.4264 25.9207L16.9421 25.4414C16.7477 25.2323 16.6847 24.9195 16.7624 24.6171C16.8397 24.3162 17.0437 24.0745 17.3242 23.9871L17.1147 23.3149ZM18.7822 23.1947C18.2682 23.1837 17.6964 23.1694 17.1343 23.3094L17.3046 23.9926C17.7601 23.8791 18.2368 23.8872 18.7671 23.8985L18.7822 23.1947ZM19.3974 23.1991C19.1973 23.2035 18.9944 23.1992 18.7822 23.1947L18.7671 23.8985C18.9767 23.903 19.1949 23.9077 19.4129 23.9029L19.3974 23.1991ZM43.4719 23.2006C35.4499 23.2009 27.4276 23.2013 19.4052 23.199L19.405 23.903C27.4275 23.9053 35.4499 23.905 43.4719 23.9047L43.4719 23.2006ZM43.5032 23.2006H43.4719V23.9047H43.5032V23.2006ZM43.5033 23.2006H43.5032V23.9047H43.5033V23.2006ZM43.5035 23.2006H43.5033V23.9047H43.5035V23.2006ZM43.5036 23.2006H43.5035V23.9047H43.5036V23.2006ZM43.5038 23.2006H43.5036V23.9047H43.5038V23.2006ZM61.5233 23.201C55.5171 23.2001 49.5105 23.2004 43.5038 23.2006L43.5038 23.9047C49.5106 23.9044 55.5171 23.9042 61.5232 23.905L61.5233 23.201ZM63.6777 23.5424C63.0008 23.3814 62.2804 23.2086 61.5268 23.201L61.5197 23.905C62.1813 23.9117 62.8252 24.0633 63.5148 24.2273L63.6777 23.5424ZM63.6701 23.5406L63.67 23.5406L63.5225 24.229L63.5226 24.2291L63.6701 23.5406ZM63.6817 23.5434L63.6817 23.5433L63.5109 24.2264L63.511 24.2264L63.6817 23.5434ZM65.0391 23.818C64.5885 23.7586 64.1431 23.653 63.6778 23.5424L63.5149 24.2273C63.9744 24.3366 64.4548 24.4511 64.9471 24.516L65.0391 23.818ZM66.4692 24.0651C65.9925 23.9899 65.5249 23.9162 65.0634 23.8221L64.9228 24.512C65.4023 24.6097 65.8855 24.6858 66.3596 24.7605L66.4692 24.0651ZM68.7204 24.5054C67.9734 24.3018 67.2101 24.1818 66.4692 24.0651L66.3596 24.7605C67.1069 24.8783 67.8318 24.9929 68.5352 25.1847L68.7204 24.5054ZM69.2437 27.2543C69.7277 26.8754 69.8769 26.2641 69.7819 25.7343C69.6867 25.2025 69.332 24.6805 68.7246 24.5066L68.5309 25.1835C68.8251 25.2677 69.03 25.5296 69.0889 25.8584C69.1482 26.1892 69.046 26.5149 68.8096 26.7L69.2437 27.2543ZM67.1377 27.4999C67.4448 27.5669 67.8113 27.6486 68.1696 27.6439C68.5413 27.6391 68.928 27.542 69.2632 27.2378L68.7901 26.7165C68.6148 26.8756 68.4103 26.9367 68.1605 26.94C67.8973 26.9434 67.6121 26.8828 67.2879 26.812L67.1377 27.4999ZM66.6163 27.4002C66.7751 27.421 66.9454 27.4579 67.1377 27.4999L67.2879 26.812C67.102 26.7715 66.9014 26.7275 66.7075 26.7021L66.6163 27.4002ZM67.016 27.025L67.0065 26.9795L66.3172 27.1228L66.3267 27.1683L67.016 27.025ZM67.2642 28.7996C67.2578 28.183 67.1318 27.5823 67.016 27.025L66.3267 27.1683C66.4449 27.7372 66.5547 28.2705 66.5602 28.8069L67.2642 28.7996ZM67.2632 43.7104C67.2627 38.7413 67.2622 33.7723 67.2642 28.8034L66.5602 28.8031C66.5581 33.7723 66.5587 38.7414 66.5592 43.7105L67.2632 43.7104ZM67.2622 58.6066C67.2642 53.6412 67.2637 48.6757 67.2632 43.7104L66.5592 43.7105C66.5597 48.6758 66.5602 53.6411 66.5582 58.6063L67.2622 58.6066ZM67.2911 61.182C67.2722 60.3197 67.2535 59.4641 67.2622 58.6101L66.5582 58.6029C66.5494 59.4701 66.5684 60.337 66.5872 61.1974L67.2911 61.182ZM67.2911 61.19V61.1897H66.5871V61.19H67.2911ZM67.2911 61.1902V61.19H66.5871V61.1902H67.2911ZM67.2911 61.1905V61.1902H66.5871V61.1905H67.2911ZM67.2911 61.1907V61.1905H66.5871V61.1907H67.2911ZM67.2911 61.191V61.1907H66.5871V61.191H67.2911ZM67.2738 65.2486C67.3504 63.8875 67.3205 62.5272 67.2911 61.1833L66.5872 61.1987C66.6167 62.5472 66.6457 63.88 66.5709 65.209L67.2738 65.2486ZM65.6024 69.0177C66.6421 68.0259 67.2006 66.6373 67.2739 65.2473L66.5708 65.2102C66.5058 66.4444 66.01 67.6559 65.1165 68.5082L65.6024 69.0177ZM61.6136 70.7515C63.0199 70.5514 64.532 70.0956 65.6092 69.011L65.1097 68.5149C64.1925 69.4383 62.8635 69.8626 61.5144 70.0545L61.6136 70.7515ZM5.54415 70.755H61.564V70.051H5.54415V70.755ZM1.76152 69.1809C2.80133 70.1465 4.20638 70.5217 5.48228 70.7495L5.60602 70.0565C4.35027 69.8323 3.12192 69.4834 2.2406 68.665L1.76152 69.1809ZM-0.0730919 65.5101C0.0585821 66.8954 0.682973 68.2535 1.7715 69.1898L2.23062 68.6561C1.29628 67.8523 0.744386 66.6703 0.627779 65.4435L-0.0730919 65.5101ZM-0.0746713 28.2572V65.4768H0.629359V28.2572H-0.0746713ZM3.40271 23.6166C1.47514 24.3602 0.124776 26.2151 -0.0729759 28.2227L0.627663 28.2917C0.800297 26.5391 1.98565 24.9179 3.65611 24.2734L3.40271 23.6166ZM7.42483 23.1988C6.11782 23.1646 4.72458 23.124 3.40649 23.6152L3.65234 24.2749C4.82123 23.8393 6.07469 23.8678 7.40645 23.9025L7.42483 23.1988ZM9.21821 23.1975C8.63406 23.2301 8.03843 23.2148 7.42484 23.1988L7.40645 23.9025C8.0149 23.9184 8.6396 23.935 9.25745 23.9005L9.21821 23.1975ZM10.679 13.6062C10.0815 16.8995 9.48386 20.193 8.89138 23.4867L9.58429 23.6113C10.1767 20.3183 10.7742 17.0252 11.3717 13.7319L10.679 13.6062ZM10.6791 13.6059L10.6789 13.6066L11.3718 13.7315L11.3719 13.7308L10.6791 13.6059ZM10.6794 13.6042L10.6791 13.6057L11.3719 13.731L11.3721 13.7295L10.6794 13.6042ZM12.2696 4.81978C11.742 7.74775 11.2107 10.6758 10.6794 13.604L11.3721 13.7297C11.9034 10.8015 12.4348 7.8731 12.9625 4.94464L12.2696 4.81978ZM12.2856 4.73233L12.2698 4.81903L12.9624 4.94538L12.9782 4.85868L12.2856 4.73233ZM12.2934 4.69879L12.2934 4.6988L12.9704 4.89221L12.9704 4.8922L12.2934 4.69879ZM12.2979 4.68417L12.2979 4.68418L12.9658 4.90682L12.9658 4.90681L12.2979 4.68417ZM12.2979 4.68416L12.2979 4.68417L12.9658 4.90681L12.9659 4.9068L12.2979 4.68416ZM12.298 4.68415L12.2979 4.68416L12.9659 4.9068L12.9659 4.90679L12.298 4.68415ZM12.298 4.68415L12.298 4.68415L12.9659 4.90679L12.9659 4.90678L12.298 4.68415ZM12.7277 3.00703C12.4948 3.57729 12.3868 4.17708 12.2856 4.73235L12.9782 4.85857C13.0816 4.29104 13.1789 3.76434 13.3795 3.27324L12.7277 3.00703ZM17.2122 -0.350199C15.2377 -0.148855 13.4642 1.20184 12.7277 3.00716L13.3796 3.2731C14.0188 1.70628 15.5706 0.524871 17.2836 0.350199L17.2122 -0.350199ZM14.6943 35.7618C13.2945 35.7386 11.8661 35.7145 10.4493 35.8877L10.5348 36.5866C11.8951 36.4202 13.2745 36.4424 14.6826 36.4657L14.6943 35.7618ZM17.1601 35.7633C16.3444 35.789 15.5243 35.7755 14.6943 35.7618L14.6826 36.4657C15.5098 36.4794 16.3469 36.4933 17.1823 36.467L17.1601 35.7633ZM21.4997 39.7869C21.4594 37.5591 19.3976 35.6826 17.1585 35.7634L17.1839 36.4669C19.0476 36.3997 20.7629 37.9834 20.7958 39.7997L21.4997 39.7869ZM21.4998 45.8204C21.5161 43.8104 21.5161 41.8004 21.4998 39.7904L20.7958 39.7962C20.812 41.8023 20.812 43.8085 20.7958 45.8147L21.4998 45.8204ZM17.3995 49.8477C19.5532 49.8083 21.4616 47.9629 21.4997 45.8238L20.7958 45.8113C20.7647 47.5564 19.1768 49.1111 17.3866 49.1438L17.3995 49.8477ZM11.2725 49.8477C13.3137 49.8657 15.3549 49.8657 17.3961 49.8477L17.3899 49.1437C15.3528 49.1617 13.3158 49.1617 11.2787 49.1437L11.2725 49.8477ZM7.19129 45.8173C7.23829 47.9447 9.11827 49.7908 11.2663 49.8476L11.2849 49.1438C9.50108 49.0966 7.93361 47.5426 7.89514 45.8018L7.19129 45.8173ZM7.18124 41.8681C7.17863 43.1809 7.176 44.4971 7.19122 45.8136L7.89521 45.8055C7.88005 44.4945 7.88265 43.1831 7.88527 41.8695L7.18124 41.8681ZM7.18124 41.8688V41.8688H7.88527V41.8688H7.18124ZM7.18124 41.8687V41.8688H7.88527V41.8687H7.18124ZM7.18124 41.8687V41.8687H7.88527V41.8687H7.18124ZM7.18124 41.8686V41.8687H7.88527V41.8686H7.18124ZM7.18124 41.8686V41.8686H7.88527V41.8686H7.18124ZM7.18124 41.8683V41.8686H7.88527V41.8683H7.18124ZM7.18124 41.868V41.8683H7.88527V41.868H7.18124ZM7.18124 41.8678V41.868H7.88527V41.8678H7.18124ZM7.18124 41.8675V41.8678H7.88527V41.8675H7.18124ZM7.18124 41.8672V41.8675H7.88527V41.8672H7.18124ZM7.18306 40.0037C7.18371 40.6242 7.18248 41.245 7.18124 41.8665L7.88527 41.8679C7.88651 41.2465 7.88774 40.6247 7.88709 40.0029L7.18306 40.0037ZM10.4115 35.8945C8.5436 36.3337 7.14515 38.113 7.18313 40.0104L7.88702 39.9963C7.85581 38.4374 9.02156 36.9446 10.5726 36.5798L10.4115 35.8945ZM10.5076 39.9671C10.4827 39.5727 10.8003 39.1604 11.215 39.069L11.0635 38.3815C10.3344 38.5421 9.7566 39.2459 9.80495 40.0115L10.5076 39.9671ZM10.5062 45.602C10.4981 43.7327 10.4961 41.8619 10.5083 39.9916L9.80426 39.987C9.79204 41.8608 9.79408 43.7343 9.80222 45.6051L10.5062 45.602ZM11.4679 46.5781C10.9417 46.6071 10.466 46.1228 10.5051 45.6315L9.80333 45.5756C9.72846 46.5164 10.5796 47.3321 11.5066 47.2811L11.4679 46.5781ZM14.0696 46.5842C13.208 46.5865 12.3497 46.5888 11.4918 46.5776L11.4826 47.2816C12.347 47.2928 13.2108 47.2905 14.0715 47.2882L14.0696 46.5842ZM16.5587 46.5896C15.7278 46.5798 14.8972 46.582 14.0696 46.5842L14.0715 47.2882C14.8999 47.286 15.7254 47.2838 16.5504 47.2936L16.5587 46.5896ZM16.8323 46.5868C16.7396 46.5868 16.6408 46.5867 16.5433 46.5898L16.5658 47.2934C16.6498 47.2908 16.7369 47.2908 16.8319 47.2908L16.8323 46.5868ZM16.8322 46.5868H16.8321V47.2908H16.8322V46.5868ZM16.8322 46.5868H16.8322V47.2908H16.8322V46.5868ZM16.8323 46.5868H16.8322V47.2908H16.8323V46.5868ZM16.8323 46.5868H16.8323V47.2908H16.8323V46.5868ZM16.8324 46.5868H16.8323V47.2908H16.8324V46.5868ZM17.8237 46.3916C17.593 46.5744 17.2833 46.5871 16.8326 46.5868L16.8322 47.2908C17.2294 47.2911 17.8052 47.3044 18.2608 46.9436L17.8237 46.3916ZM18.2419 45.1866C18.2339 45.4421 18.2142 45.6888 18.1506 45.904C18.0884 46.1143 17.9908 46.273 17.8392 46.3801L18.2453 46.9551C18.5638 46.7302 18.7337 46.4149 18.8257 46.1036C18.9163 45.7973 18.9373 45.475 18.9456 45.2085L18.2419 45.1866ZM18.1608 39.7871C18.2518 41.5824 18.2519 43.3857 18.2417 45.1955L18.9457 45.1995C18.9559 43.3892 18.956 41.5684 18.8639 39.7515L18.1608 39.7871ZM17.2001 39.0408C17.6878 39.0147 18.1337 39.3771 18.1611 39.7925L18.8636 39.7461C18.8055 38.8655 17.949 38.2958 17.1626 38.3377L17.2001 39.0408ZM16.222 39.0034C16.5372 39.0166 16.8533 39.0297 17.1688 39.041L17.194 38.3375C16.8809 38.3262 16.5669 38.3132 16.2514 38.3L16.222 39.0034ZM16.2201 39.0033L16.2208 39.0034L16.2526 38.3L16.2518 38.3L16.2201 39.0033ZM16.2204 39.0033L16.2212 39.0034L16.2506 38.3L16.2498 38.2999L16.2204 39.0033ZM16.2206 39.0034L16.2215 39.0034L16.2488 38.2999L16.2479 38.2999L16.2206 39.0034ZM11.1839 39.0744C12.8343 38.863 14.5152 38.9322 16.2196 39.0033L16.2489 38.2999C14.5549 38.2293 12.814 38.1558 11.0945 38.3761L11.1839 39.0744ZM51.1411 36.4663H51.1411V35.7623H51.1411V36.4663ZM48.7858 36.5558C49.55 36.4437 50.3265 36.4544 51.1359 36.4663L51.1462 35.7623C50.3464 35.7506 49.5131 35.7376 48.6837 35.8592L48.7858 36.5558ZM45.4344 39.1738C45.9869 37.8099 47.3036 36.7831 48.7881 36.5554L48.6813 35.8595C46.9585 36.1238 45.4301 37.3092 44.7819 38.9094L45.4344 39.1738ZM46.9509 45.0337C45.1108 43.7968 44.5522 41.1816 45.4305 39.1832L44.7859 38.9C43.7919 41.1618 44.3933 44.1628 46.5582 45.618L46.9509 45.0337ZM49.7279 45.82C48.7391 45.8425 47.7502 45.5863 46.9548 45.0363L46.5544 45.6154C47.4888 46.2615 48.6285 46.5493 49.744 46.5238L49.7279 45.82ZM51.2883 45.8216C50.771 45.8208 50.2534 45.8199 49.736 45.8199V46.5239C50.2527 46.5239 50.7697 46.5248 51.2871 46.5257L51.2883 45.8216ZM51.2881 45.8216H51.2877V46.5257H51.2881V45.8216ZM51.2885 45.8216H51.2881V46.5257H51.2885V45.8216ZM51.2888 45.8216H51.2885V46.5257H51.2888V45.8216ZM51.2892 45.8216H51.2888V46.5257H51.2892V45.8216ZM55.0183 45.8159C53.7761 45.8258 52.5336 45.8237 51.2898 45.8216L51.2886 46.5257C52.5318 46.5277 53.7777 46.5298 55.0239 46.5199L55.0183 45.8159ZM58.6388 44.0329C57.843 45.1612 56.4324 45.8233 55.023 45.8159L55.0192 46.5199C56.6339 46.5285 58.2719 45.7745 59.2141 44.4387L58.6388 44.0329ZM57.4166 37.1555C59.7046 38.5264 60.1856 41.9146 58.6421 44.0282L59.2107 44.4434C60.9681 42.0368 60.4642 38.1608 57.7784 36.5515L57.4166 37.1555ZM53.4455 36.4644C54.9038 36.4428 56.2668 36.4322 57.4101 37.1515L57.785 36.5555C56.4354 35.7065 54.8515 35.7395 53.435 35.7604L53.4455 36.4644ZM53.44 36.4644H53.4403V35.7604H53.44V36.4644ZM52.3557 36.4674C52.717 36.4752 53.0837 36.4697 53.4452 36.4644L53.4347 35.7604C53.071 35.7658 52.7172 35.771 52.3709 35.7635L52.3557 36.4674ZM51.1362 36.4663C51.5427 36.4722 51.9576 36.4784 52.3726 36.4674L52.354 35.7636C51.9559 35.7741 51.5555 35.7683 51.1466 35.7623L51.1362 36.4663ZM51.1413 36.4663H51.1414V35.7623H51.1413V36.4663ZM51.1413 36.4663H51.1413V35.7623H51.1413V36.4663ZM51.1412 36.4663H51.1413V35.7623H51.1412V36.4663ZM51.1411 36.4663H51.1412V35.7623H51.1411V36.4663ZM48.9543 38.4257C47.8455 38.6691 47.1705 39.5745 46.9688 40.5464C46.7679 41.5141 47.0195 42.6213 47.8451 43.3135L48.2974 42.774C47.7107 42.2821 47.4983 41.4593 47.6581 40.6895C47.8171 39.9237 48.3276 39.2841 49.1053 39.1134L48.9543 38.4257ZM52.5313 38.3332C51.3659 38.3172 50.1771 38.3006 48.9946 38.4193L49.065 39.1198C50.2008 39.0057 51.3495 39.0211 52.5217 39.0371L52.5313 38.3332ZM54.6107 38.3337C53.9225 38.3522 53.2311 38.3428 52.5313 38.3332L52.5217 39.0371C53.219 39.0467 53.9247 39.0564 54.6296 39.0375L54.6107 38.3337ZM57.4441 40.0297C57.0181 38.8541 55.7489 38.2453 54.5931 38.3346L54.6473 39.0366C55.5632 38.9658 56.4878 39.4571 56.7822 40.2696L57.4441 40.0297ZM55.4884 43.9142C56.3753 43.7547 57.0374 43.1434 57.3875 42.4048C57.7365 41.6685 57.7928 40.7712 57.432 40.0004L56.7943 40.2989C57.0542 40.8541 57.0231 41.5299 56.7513 42.1032C56.4807 42.6741 55.9889 43.1089 55.3638 43.2213L55.4884 43.9142ZM52.8721 43.9986C53.7197 44.0136 54.5979 44.0299 55.4712 43.9169L55.3809 43.2187C54.5674 43.3239 53.741 43.3099 52.8846 43.2947L52.8721 43.9986ZM52.8783 43.9986H52.8784V43.2946H52.8783V43.9986ZM52.8782 43.9986H52.8783V43.2946H52.8782V43.9986ZM52.8781 43.9986H52.8782V43.2946H52.8781V43.9986ZM52.8781 43.9986H52.8781V43.2946H52.8781V43.9986ZM51.3719 43.9976C51.866 43.9808 52.3635 43.9896 52.8718 43.9986L52.8843 43.2947C52.3791 43.2857 51.8633 43.2765 51.348 43.294L51.3719 43.9976ZM50.6926 44.0015C50.9235 43.9968 51.1417 43.9924 51.351 43.9977L51.3689 43.2939C51.1406 43.2881 50.906 43.2929 50.6783 43.2976L50.6926 44.0015ZM50.6853 44.0015H50.6855V43.2975H50.6853V44.0015ZM50.6852 44.0015H50.6853V43.2975H50.6852V44.0015ZM50.6851 44.0015H50.6852V43.2975H50.6851V44.0015ZM50.685 44.0015H50.6851V43.2975H50.685V44.0015ZM47.8355 43.3052C48.6711 44.0589 49.7984 44.0196 50.6922 44.0015L50.6779 43.2976C49.7194 43.3171 48.9003 43.3175 48.3071 42.7824L47.8355 43.3052ZM13.0391 54.7172C11.8699 54.7039 10.6818 54.6902 9.49985 54.7796L9.55292 55.4816C10.6993 55.3949 11.8567 55.4079 13.0311 55.4212L13.0391 54.7172ZM14.9448 54.7226C14.3131 54.7317 13.6789 54.7245 13.0391 54.7172L13.0311 55.4212C13.6694 55.4285 14.3127 55.4358 14.955 55.4266L14.9448 54.7226ZM16.4174 57.2083C16.8048 56.6621 16.7295 55.9946 16.4318 55.5079C16.1341 55.0211 15.5739 54.6479 14.9094 54.7249L14.9904 55.4243C15.3272 55.3852 15.6451 55.5711 15.8312 55.8753C16.0174 56.1796 16.0316 56.5352 15.8431 56.801L16.4174 57.2083ZM14.179 57.9961C14.5181 58.004 14.9496 58.016 15.3483 57.9277C15.7591 57.8367 16.1729 57.6312 16.4345 57.1817L15.826 56.8276C15.6942 57.0541 15.4845 57.1765 15.1961 57.2403C14.8956 57.3069 14.5523 57.3006 14.1956 57.2922L14.179 57.9961ZM14.1175 57.9946L14.1791 57.9961L14.1955 57.2922L14.1339 57.2908L14.1175 57.9946ZM12.31 57.9899C12.9184 57.9821 13.5175 57.9745 14.1139 57.9945L14.1375 57.2909C13.5221 57.2702 12.9067 57.2782 12.3009 57.2859L12.31 57.9899ZM9.62433 57.9354C10.5248 58.0131 11.4274 58.0012 12.31 57.9899L12.3009 57.2859C11.4125 57.2973 10.5448 57.3082 9.68485 57.234L9.62433 57.9354ZM9.4386 54.7897C8.62097 55.0003 8.27364 55.7516 8.30867 56.421C8.34368 57.0904 8.76699 57.8022 9.60021 57.9325L9.70897 57.2369C9.28858 57.1712 9.03421 56.8139 9.01173 56.3843C8.98926 55.9547 9.20464 55.5769 9.61417 55.4715L9.4386 54.7897ZM21.1147 55.4558C22.4721 55.4027 23.8348 55.4124 25.2069 55.4223L25.2119 54.7183C23.8426 54.7084 22.4635 54.6984 21.0872 54.7523L21.1147 55.4558ZM20.4544 56.3788C20.4183 55.974 20.7501 55.5366 21.1727 55.4486L21.0292 54.7594C20.2795 54.9154 19.6833 55.6581 19.7531 56.4413L20.4544 56.3788ZM21.4295 57.2741C20.9176 57.2817 20.4639 56.8627 20.4557 56.4037L19.7518 56.4164C19.7679 57.3135 20.5923 57.9906 21.4399 57.9781L21.4295 57.2741ZM24.243 57.2848C23.3057 57.2877 22.373 57.2906 21.4409 57.2742L21.4285 57.9781C22.3691 57.9947 23.3091 57.9918 24.2452 57.9888L24.243 57.2848ZM26.5322 57.2881C25.7676 57.28 25.0038 57.2824 24.243 57.2848L24.2452 57.9888C25.0068 57.9864 25.7658 57.9841 26.5248 57.9921L26.5322 57.2881ZM27.7417 56.7794C27.565 57.1462 27.0848 57.3216 26.5501 57.2888L26.5069 57.9915C27.1444 58.0306 28.0114 57.842 28.376 57.0848L27.7417 56.7794ZM26.9598 55.4297C27.2608 55.4158 27.5512 55.5953 27.7251 55.8828C27.8989 56.1699 27.9169 56.4977 27.7613 56.7441L28.3565 57.1201C28.6873 56.5964 28.6045 55.9762 28.3275 55.5183C28.0506 55.0607 27.5402 54.6982 26.9275 54.7264L26.9598 55.4297ZM25.2071 55.4223C25.785 55.4264 26.3646 55.4306 26.944 55.43L26.9433 54.726C26.3672 54.7266 25.7905 54.7224 25.2121 54.7183L25.2071 55.4223ZM25.2095 55.4223H25.2096V54.7183H25.2095V55.4223ZM25.2094 55.4223H25.2095V54.7183H25.2094V55.4223ZM33.8526 54.7165C33.6163 54.72 33.3258 54.7224 33.039 54.801L33.2252 55.4799C33.4112 55.429 33.6111 55.4241 33.863 55.4204L33.8526 54.7165ZM34.0405 54.7126C33.9797 54.7146 33.918 54.7155 33.8526 54.7165L33.863 55.4204C33.9273 55.4195 33.9952 55.4185 34.0634 55.4163L34.0405 54.7126ZM38.9501 54.7184C37.3173 54.7199 35.6857 54.7214 34.0539 54.7124L34.05 55.4165C35.6845 55.4255 37.3183 55.424 38.9507 55.4225L38.9501 54.7184ZM38.9522 54.7184H38.9504V55.4225H38.9522V54.7184ZM43.8508 54.7244C42.2169 54.7154 40.5837 54.7169 38.9519 54.7184L38.9525 55.4225C40.5848 55.421 42.2157 55.4195 43.8469 55.4285L43.8508 54.7244ZM45.3052 57.1334C45.6412 56.5969 45.5554 55.9655 45.2671 55.5016C44.979 55.0381 44.451 54.6801 43.8235 54.7254L43.8742 55.4276C44.189 55.4048 44.4893 55.5839 44.6692 55.8733C44.849 56.1625 44.8711 56.5001 44.7085 56.7597L45.3052 57.1334ZM43.3978 57.9921C44.0187 58.0233 44.9374 57.8917 45.3232 57.1009L44.6905 56.7922C44.5064 57.1694 44.0087 57.3179 43.433 57.289L43.3978 57.9921ZM39.2751 57.989C40.6561 57.9846 42.0347 57.9801 43.4122 57.9926L43.4186 57.2886C42.036 57.2761 40.6531 57.2805 39.2728 57.285L39.2751 57.989ZM33.4361 57.9605C35.3831 58.0015 37.3316 57.9953 39.2751 57.989L39.2728 57.285C37.3279 57.2912 35.388 57.2975 33.4509 57.2566L33.4361 57.9605ZM33.028 54.8042C32.1961 55.0617 31.8881 55.857 31.9723 56.5384C32.0566 57.221 32.55 57.9164 33.4259 57.9601L33.461 57.257C33.0141 57.2347 32.7251 56.8901 32.671 56.4521C32.6168 56.0129 32.8145 55.6073 33.2362 55.4767L33.028 54.8042ZM49.8464 55.486C51.446 55.3928 53.0572 55.4077 54.6816 55.4229L54.6882 54.7188C53.0678 54.7037 51.4328 54.6883 49.8054 54.7832L49.8464 55.486ZM50.0204 57.2355C49.6016 57.1654 49.3512 56.8115 49.3282 56.3891C49.3053 55.966 49.5165 55.5877 49.9215 55.4734L49.7303 54.7958C48.9305 55.0215 48.5892 55.7633 48.6252 56.4272C48.6613 57.0918 49.0815 57.7921 49.9041 57.9299L50.0204 57.2355ZM53.9129 57.2856C52.591 57.2973 51.2836 57.3087 49.9831 57.2313L49.9413 57.9341C51.2698 58.0132 52.6013 58.0012 53.9191 57.9896L53.9129 57.2856ZM56.6455 57.2908C55.7327 57.2695 54.8194 57.2776 53.9129 57.2856L53.9191 57.9896C54.8275 57.9816 55.7294 57.9736 56.6291 57.9946L56.6455 57.2908ZM58.083 56.785C57.9795 56.9982 57.7951 57.1317 57.5389 57.2109C57.2759 57.2922 56.9616 57.3073 56.6558 57.2912L56.6189 57.9943C56.9602 58.0122 57.3694 58.0002 57.7469 57.8835C58.1312 57.7647 58.5044 57.5291 58.7164 57.0924L58.083 56.785ZM57.2881 55.4301C57.59 55.413 57.8861 55.5923 58.0645 55.8825C58.2424 56.172 58.2615 56.5016 58.1032 56.749L58.6962 57.1284C59.0345 56.5998 58.9467 55.9733 58.6642 55.5138C58.3822 55.0549 57.8642 54.6923 57.2483 54.7272L57.2881 55.4301ZM54.6816 55.4229C55.5429 55.4309 56.4078 55.439 57.2716 55.4306L57.2648 54.7266C56.4088 54.7349 55.5506 54.7269 54.6882 54.7188L54.6816 55.4229Z" fill="white" mask="url(#path-3-inside-1_57076_5823)"/>
</g>
</g>
<defs>
<clipPath id="clip0_57076_5823">
<rect width="78.1473" height="70.403" fill="white" transform="translate(0.277344)"/>
</clipPath>
</defs>
</svg>
