<svg width="53" height="50" viewBox="0 0 53 50" fill="none" xmlns="http://www.w3.org/2000/svg">
<ellipse cx="25.8065" cy="25" rx="25.8065" ry="25" transform="matrix(-1 0 0 1 52.3086 0)" fill="#FFC0D3"/>
<path d="M26.0521 47.3932C13.6979 47.3932 3.65625 37.3516 3.65625 24.9974C3.65625 12.6432 13.6979 2.60156 26.0521 2.60156C38.4062 2.60156 48.4479 12.6432 48.4479 24.9974C48.4479 37.3516 38.4062 47.3932 26.0521 47.3932ZM26.0521 5.72656C15.4271 5.72656 6.78125 14.3724 6.78125 24.9974C6.78125 35.6224 15.4271 44.2682 26.0521 44.2682C36.6771 44.2682 45.3229 35.6224 45.3229 24.9974C45.3229 14.3724 36.6771 5.72656 26.0521 5.72656Z" fill="#292D32"/>
<path d="M26.0508 28.6432C25.1966 28.6432 24.4883 27.9349 24.4883 27.0807V16.6641C24.4883 15.8099 25.1966 15.1016 26.0508 15.1016C26.9049 15.1016 27.6133 15.8099 27.6133 16.6641V27.0807C27.6133 27.9349 26.9049 28.6432 26.0508 28.6432Z" fill="#292D32"/>
<path d="M26.0521 35.4141C25.7813 35.4141 25.5104 35.3516 25.2604 35.2474C25.0104 35.1432 24.7813 34.9974 24.5729 34.8099C24.3854 34.6016 24.2396 34.3932 24.1354 34.1224C24.0312 33.8724 23.9688 33.6016 23.9688 33.3307C23.9688 33.0599 24.0312 32.7891 24.1354 32.5391C24.2396 32.2891 24.3854 32.0599 24.5729 31.8516C24.7813 31.6641 25.0104 31.5182 25.2604 31.4141C25.7604 31.2057 26.3438 31.2057 26.8438 31.4141C27.0938 31.5182 27.3229 31.6641 27.5313 31.8516C27.7188 32.0599 27.8646 32.2891 27.9688 32.5391C28.0729 32.7891 28.1354 33.0599 28.1354 33.3307C28.1354 33.6016 28.0729 33.8724 27.9688 34.1224C27.8646 34.3932 27.7188 34.6016 27.5313 34.8099C27.3229 34.9974 27.0938 35.1432 26.8438 35.2474C26.5938 35.3516 26.3229 35.4141 26.0521 35.4141Z" fill="#292D32"/>
</svg>
