<svg width="12" height="12" viewBox="0 0 12 12" fill="none" xmlns="http://www.w3.org/2000/svg">
<path id="Vector" d="M4.92129 0.0963914C6.34965 -0.164743 7.8703 0.108773 9.10956 0.867412C10.6426 1.78701 11.722 3.4236 11.946 5.19864C12.1666 6.76094 11.7277 8.4009 10.7642 9.64917C9.90647 10.777 8.63457 11.5795 7.24786 11.8688C5.72045 12.1986 4.06698 11.9003 2.75793 11.0449C1.2913 10.1185 0.276032 8.52022 0.0554191 6.80033C-0.167445 5.21102 0.289539 3.54291 1.28793 2.28677C2.17938 1.14656 3.49744 0.354149 4.92129 0.0963914ZM5.81162 2.89007C5.59889 2.96436 5.53473 3.20186 5.55161 3.40559C5.55949 4.31055 5.53586 5.21664 5.56287 6.12161C5.59101 6.60673 6.42281 6.60111 6.44082 6.11373C6.46446 5.17275 6.45208 4.23064 6.44757 3.28965C6.47571 2.96436 6.08739 2.75726 5.81162 2.89007ZM5.82288 7.52633C5.32425 7.64564 5.26797 8.42567 5.72383 8.63615C6.09302 8.8365 6.61754 8.57649 6.61303 8.13639C6.66368 7.71543 6.2112 7.39014 5.82288 7.52633Z" fill="#FFCB82"/>
</svg>
