<svg width="57" height="58" viewBox="0 0 57 58" fill="none" xmlns="http://www.w3.org/2000/svg">
<ellipse cx="28.4994" cy="29.8369" rx="26.8236" ry="25.9853" fill="#9DF9CC"/>
<path d="M37.968 21.1341C39.1827 20.0933 41.4728 20.7202 41.8267 22.158C42.1415 23.0681 41.5397 23.9492 40.7708 24.5252C36.7143 28.0301 32.6828 31.5567 28.6291 35.064C27.7292 35.9257 26.0214 35.9208 25.141 35.0398C23.1406 33.2268 21.1458 31.4066 19.1565 29.5864C18.2538 28.8482 18.1926 27.5073 19.0479 26.7254C19.9004 25.8541 21.5915 25.8178 22.4887 26.6577C23.9903 27.9841 25.4447 29.3517 26.9324 30.6902C30.6267 27.5194 34.2625 24.2953 37.968 21.1341Z" fill="#353C57"/>
<path d="M20.9906 1.53158C28.3829 -0.576368 36.6062 0.595883 43.1622 4.59363C47.5645 7.24829 51.2435 11.0962 53.6629 15.6328C55.7694 19.5464 56.8817 23.9595 57.0001 28.3962V30.4726C56.6766 34.9855 55.4222 39.4537 53.1001 43.3568C50.5072 47.7909 46.694 51.5022 42.1892 53.9728C38.0999 56.2437 33.4399 57.4107 28.7721 57.5001H28.1699C23.5704 57.4028 18.9841 56.2595 14.9447 54.0412C10.4163 51.5941 6.57943 47.8934 3.96018 43.4646C0.799189 38.1684 -0.534108 31.8209 0.194339 25.6994C0.975382 18.8394 4.36516 12.3158 9.53793 7.73979C10.0586 7.2588 10.7766 6.98545 11.4892 7.12476C12.6621 7.2956 13.5431 8.51779 13.3222 9.68742C13.2144 10.5443 12.4938 11.0989 11.9179 11.6613C6.9739 16.3083 4.21527 23.1499 4.50717 29.9232C4.68337 35.0091 6.56102 40.0109 9.75357 43.9745C12.9829 48.0117 17.5403 50.9844 22.5632 52.2434C27.4362 53.5023 32.7115 53.1712 37.3846 51.2893C42.1471 49.3968 46.2627 45.93 48.9425 41.5617C53.8286 33.8395 53.6603 23.3103 48.5138 15.7563C45.6027 11.3696 41.2162 7.9816 36.2328 6.27579C32.0803 4.84333 27.5256 4.58575 23.2443 5.58979C22.671 5.71332 22.1004 5.8868 21.506 5.8868C20.441 5.86051 19.5074 4.94846 19.4127 3.89449C19.2812 2.86417 19.9755 1.79442 20.9906 1.53158Z" fill="#353C57"/>
</svg>
